<svg width="298" height="342" viewBox="0 0 298 342" fill="none" xmlns="http://www.w3.org/2000/svg">
<rect x="54" width="207" height="72" rx="36" fill="#293462"/>
<path d="M104.675 17.16C104.742 17.0533 104.835 17 104.955 17H106.795C106.862 17 106.915 17.0267 106.955 17.08C107.009 17.12 107.035 17.1733 107.035 17.24V30.76C107.035 30.8267 107.009 30.8867 106.955 30.94C106.915 30.98 106.862 31 106.795 31H104.955C104.889 31 104.829 30.98 104.775 30.94C104.735 30.8867 104.715 30.8267 104.715 30.76V21.22C104.715 21.18 104.695 21.1533 104.655 21.14C104.629 21.1267 104.609 21.14 104.595 21.18L102.095 25.02C102.029 25.1267 101.935 25.18 101.815 25.18H100.895C100.775 25.18 100.682 25.1267 100.615 25.02L98.0953 21.2C98.082 21.16 98.0553 21.1467 98.0153 21.16C97.9886 21.1733 97.9753 21.2 97.9753 21.24V30.76C97.9753 30.8267 97.9486 30.8867 97.8953 30.94C97.8553 30.98 97.802 31 97.7353 31H95.8953C95.8286 31 95.7686 30.98 95.7153 30.94C95.6753 30.8867 95.6553 30.8267 95.6553 30.76V17.24C95.6553 17.1733 95.6753 17.12 95.7153 17.08C95.7686 17.0267 95.8286 17 95.8953 17H97.7353C97.8553 17 97.9486 17.0533 98.0153 17.16L101.275 22.1C101.302 22.1267 101.329 22.14 101.355 22.14C101.382 22.14 101.402 22.1267 101.415 22.1L104.675 17.16ZM118.352 24.74C118.406 25.0733 118.432 25.4467 118.432 25.86L118.412 26.48C118.412 26.64 118.332 26.72 118.172 26.72H111.912C111.846 26.72 111.812 26.7533 111.812 26.82C111.852 27.26 111.912 27.56 111.992 27.72C112.312 28.68 113.092 29.1667 114.332 29.18C115.239 29.18 115.959 28.8067 116.492 28.06C116.546 27.98 116.612 27.94 116.692 27.94C116.746 27.94 116.792 27.96 116.832 28L118.072 29.02C118.192 29.1133 118.212 29.22 118.132 29.34C117.719 29.9267 117.166 30.38 116.472 30.7C115.792 31.02 115.032 31.18 114.192 31.18C113.152 31.18 112.266 30.9467 111.532 30.48C110.812 30.0133 110.286 29.36 109.952 28.52C109.646 27.8 109.492 26.8 109.492 25.52C109.492 24.7467 109.572 24.12 109.732 23.64C109.999 22.7067 110.499 21.9733 111.232 21.44C111.979 20.8933 112.872 20.62 113.912 20.62C116.539 20.62 118.019 21.9933 118.352 24.74ZM113.912 22.62C113.419 22.62 113.006 22.7467 112.672 23C112.352 23.24 112.126 23.58 111.992 24.02C111.912 24.2467 111.859 24.54 111.832 24.9C111.806 24.9667 111.832 25 111.912 25H115.972C116.039 25 116.072 24.9667 116.072 24.9C116.046 24.5667 116.006 24.3133 115.952 24.14C115.832 23.66 115.592 23.2867 115.232 23.02C114.886 22.7533 114.446 22.62 113.912 22.62ZM131.493 20.62C132.519 20.62 133.319 20.9333 133.893 21.56C134.479 22.1733 134.773 23.0333 134.773 24.14V30.76C134.773 30.8267 134.746 30.8867 134.693 30.94C134.653 30.98 134.599 31 134.533 31H132.713C132.646 31 132.586 30.98 132.533 30.94C132.493 30.8867 132.473 30.8267 132.473 30.76V24.62C132.473 24.0067 132.306 23.52 131.973 23.16C131.653 22.8 131.219 22.62 130.673 22.62C130.126 22.62 129.679 22.8 129.333 23.16C128.986 23.52 128.813 24 128.813 24.6V30.76C128.813 30.8267 128.786 30.8867 128.733 30.94C128.693 30.98 128.639 31 128.573 31H126.753C126.686 31 126.626 30.98 126.573 30.94C126.533 30.8867 126.513 30.8267 126.513 30.76V24.62C126.513 24.0067 126.346 23.52 126.013 23.16C125.679 22.8 125.239 22.62 124.693 22.62C124.186 22.62 123.766 22.7667 123.433 23.06C123.113 23.3533 122.926 23.7533 122.873 24.26V30.76C122.873 30.8267 122.846 30.8867 122.793 30.94C122.753 30.98 122.699 31 122.633 31H120.793C120.726 31 120.666 30.98 120.613 30.94C120.573 30.8867 120.553 30.8267 120.553 30.76V21.02C120.553 20.9533 120.573 20.9 120.613 20.86C120.666 20.8067 120.726 20.78 120.793 20.78H122.633C122.699 20.78 122.753 20.8067 122.793 20.86C122.846 20.9 122.873 20.9533 122.873 21.02V21.68C122.873 21.72 122.886 21.7467 122.913 21.76C122.939 21.7733 122.966 21.76 122.993 21.72C123.286 21.3467 123.646 21.0733 124.073 20.9C124.513 20.7133 124.999 20.62 125.533 20.62C126.186 20.62 126.759 20.7533 127.253 21.02C127.746 21.2867 128.126 21.6733 128.393 22.18C128.433 22.2333 128.479 22.2333 128.533 22.18C128.826 21.6467 129.233 21.2533 129.753 21C130.273 20.7467 130.853 20.62 131.493 20.62ZM145.735 23.42C145.962 24.1667 146.075 24.98 146.075 25.86C146.075 26.8067 145.948 27.64 145.695 28.36C145.402 29.24 144.928 29.9267 144.275 30.42C143.622 30.9133 142.822 31.16 141.875 31.16C140.942 31.16 140.175 30.8067 139.575 30.1C139.548 30.06 139.522 30.0467 139.495 30.06C139.468 30.0733 139.455 30.1 139.455 30.14V30.76C139.455 30.8267 139.428 30.8867 139.375 30.94C139.335 30.98 139.282 31 139.215 31H137.375C137.308 31 137.248 30.98 137.195 30.94C137.155 30.8867 137.135 30.8267 137.135 30.76V17.24C137.135 17.1733 137.155 17.12 137.195 17.08C137.248 17.0267 137.308 17 137.375 17H139.215C139.282 17 139.335 17.0267 139.375 17.08C139.428 17.12 139.455 17.1733 139.455 17.24V21.58C139.455 21.62 139.468 21.6467 139.495 21.66C139.522 21.6733 139.548 21.6667 139.575 21.64C140.148 20.96 140.908 20.62 141.855 20.62C142.842 20.62 143.655 20.8667 144.295 21.36C144.948 21.8533 145.428 22.54 145.735 23.42ZM143.215 28.2C143.535 27.64 143.695 26.8733 143.695 25.9C143.695 24.86 143.495 24.0467 143.095 23.46C142.735 22.9 142.202 22.62 141.495 22.62C140.842 22.62 140.342 22.9133 139.995 23.5C139.662 24.0467 139.495 24.84 139.495 25.88C139.495 26.9067 139.648 27.68 139.955 28.2C140.302 28.84 140.822 29.16 141.515 29.16C141.888 29.16 142.222 29.08 142.515 28.92C142.808 28.7467 143.042 28.5067 143.215 28.2ZM156.829 24.74C156.882 25.0733 156.909 25.4467 156.909 25.86L156.889 26.48C156.889 26.64 156.809 26.72 156.649 26.72H150.389C150.322 26.72 150.289 26.7533 150.289 26.82C150.329 27.26 150.389 27.56 150.469 27.72C150.789 28.68 151.569 29.1667 152.809 29.18C153.715 29.18 154.435 28.8067 154.969 28.06C155.022 27.98 155.089 27.94 155.169 27.94C155.222 27.94 155.269 27.96 155.309 28L156.549 29.02C156.669 29.1133 156.689 29.22 156.609 29.34C156.195 29.9267 155.642 30.38 154.949 30.7C154.269 31.02 153.509 31.18 152.669 31.18C151.629 31.18 150.742 30.9467 150.009 30.48C149.289 30.0133 148.762 29.36 148.429 28.52C148.122 27.8 147.969 26.8 147.969 25.52C147.969 24.7467 148.049 24.12 148.209 23.64C148.475 22.7067 148.975 21.9733 149.709 21.44C150.455 20.8933 151.349 20.62 152.389 20.62C155.015 20.62 156.495 21.9933 156.829 24.74ZM152.389 22.62C151.895 22.62 151.482 22.7467 151.149 23C150.829 23.24 150.602 23.58 150.469 24.02C150.389 24.2467 150.335 24.54 150.309 24.9C150.282 24.9667 150.309 25 150.389 25H154.449C154.515 25 154.549 24.9667 154.549 24.9C154.522 24.5667 154.482 24.3133 154.429 24.14C154.309 23.66 154.069 23.2867 153.709 23.02C153.362 22.7533 152.922 22.62 152.389 22.62ZM163.789 20.66C164.216 20.66 164.589 20.7467 164.909 20.92C165.016 20.9733 165.056 21.0733 165.029 21.22L164.689 23.02C164.676 23.18 164.582 23.2267 164.409 23.16C164.209 23.0933 163.976 23.06 163.709 23.06C163.536 23.06 163.402 23.0667 163.309 23.08C162.749 23.1067 162.282 23.3067 161.909 23.68C161.536 24.04 161.349 24.5133 161.349 25.1V30.76C161.349 30.8267 161.322 30.8867 161.269 30.94C161.229 30.98 161.176 31 161.109 31H159.269C159.202 31 159.142 30.98 159.089 30.94C159.049 30.8867 159.029 30.8267 159.029 30.76V21.02C159.029 20.9533 159.049 20.9 159.089 20.86C159.142 20.8067 159.202 20.78 159.269 20.78H161.109C161.176 20.78 161.229 20.8067 161.269 20.86C161.322 20.9 161.349 20.9533 161.349 21.02V21.92C161.349 21.9733 161.356 22.0067 161.369 22.02C161.396 22.02 161.422 22 161.449 21.96C162.009 21.0933 162.789 20.66 163.789 20.66ZM179.213 23.42C179.453 24.1 179.573 24.9333 179.573 25.92C179.573 26.8667 179.459 27.68 179.233 28.36C178.939 29.24 178.466 29.9267 177.813 30.42C177.173 30.9133 176.359 31.16 175.373 31.16C174.426 31.16 173.666 30.82 173.093 30.14C173.066 30.1133 173.039 30.1067 173.013 30.12C172.986 30.1333 172.973 30.16 172.973 30.2V34.54C172.973 34.6067 172.946 34.66 172.893 34.7C172.853 34.7533 172.799 34.78 172.733 34.78H170.893C170.826 34.78 170.766 34.7533 170.713 34.7C170.673 34.66 170.653 34.6067 170.653 34.54V21.02C170.653 20.9533 170.673 20.9 170.713 20.86C170.766 20.8067 170.826 20.78 170.893 20.78H172.733C172.799 20.78 172.853 20.8067 172.893 20.86C172.946 20.9 172.973 20.9533 172.973 21.02V21.62C172.973 21.66 172.986 21.6867 173.013 21.7C173.039 21.7133 173.066 21.7 173.093 21.66C173.679 20.9667 174.446 20.62 175.393 20.62C176.339 20.62 177.139 20.8667 177.793 21.36C178.446 21.8533 178.919 22.54 179.213 23.42ZM176.613 28.32C177.013 27.7067 177.213 26.8933 177.213 25.88C177.213 24.9067 177.053 24.14 176.733 23.58C176.359 22.9267 175.793 22.6 175.033 22.6C174.339 22.6 173.819 22.92 173.473 23.56C173.166 24.08 173.013 24.8533 173.013 25.88C173.013 26.9333 173.179 27.7333 173.513 28.28C173.859 28.8667 174.359 29.16 175.013 29.16C175.719 29.16 176.253 28.88 176.613 28.32ZM186.084 31.16C185.031 31.16 184.124 30.8933 183.364 30.36C182.617 29.8267 182.091 29.0867 181.784 28.14C181.557 27.42 181.444 26.66 181.444 25.86C181.444 25.0067 181.551 24.2467 181.764 23.58C182.071 22.6467 182.604 21.92 183.364 21.4C184.124 20.88 185.037 20.62 186.104 20.62C187.117 20.62 187.991 20.88 188.724 21.4C189.471 21.92 189.997 22.64 190.304 23.56C190.544 24.2 190.664 24.96 190.664 25.84C190.664 26.68 190.551 27.44 190.324 28.12C190.017 29.0667 189.491 29.8133 188.744 30.36C187.997 30.8933 187.111 31.16 186.084 31.16ZM186.084 29.16C186.577 29.16 186.997 29.02 187.344 28.74C187.704 28.46 187.964 28.0667 188.124 27.56C188.257 27.12 188.324 26.56 188.324 25.88C188.324 25.16 188.257 24.6 188.124 24.2C187.977 23.6933 187.724 23.3067 187.364 23.04C187.004 22.76 186.564 22.62 186.044 22.62C185.551 22.62 185.124 22.76 184.764 23.04C184.404 23.3067 184.144 23.6933 183.984 24.2C183.851 24.6667 183.784 25.2267 183.784 25.88C183.784 26.5333 183.851 27.0933 183.984 27.56C184.131 28.0667 184.384 28.46 184.744 28.74C185.117 29.02 185.564 29.16 186.084 29.16ZM196.657 31.12C195.817 31.12 195.077 31 194.437 30.76C193.811 30.5067 193.324 30.1667 192.977 29.74C192.631 29.3 192.457 28.8133 192.457 28.28V28.1C192.457 28.0333 192.477 27.98 192.517 27.94C192.571 27.8867 192.631 27.86 192.697 27.86H194.457C194.524 27.86 194.577 27.8867 194.617 27.94C194.671 27.98 194.697 28.0333 194.697 28.1V28.14C194.697 28.4733 194.877 28.7667 195.237 29.02C195.611 29.26 196.077 29.38 196.637 29.38C197.171 29.38 197.604 29.2733 197.937 29.06C198.271 28.8333 198.437 28.5533 198.437 28.22C198.437 27.9133 198.297 27.6867 198.017 27.54C197.751 27.38 197.311 27.2133 196.697 27.04L195.937 26.8C195.257 26.6 194.684 26.3867 194.217 26.16C193.751 25.9333 193.357 25.6267 193.037 25.24C192.717 24.84 192.557 24.3333 192.557 23.72C192.557 22.7867 192.924 22.0467 193.657 21.5C194.391 20.94 195.357 20.66 196.557 20.66C197.371 20.66 198.084 20.7933 198.697 21.06C199.311 21.3133 199.784 21.6733 200.117 22.14C200.451 22.5933 200.617 23.1133 200.617 23.7C200.617 23.7667 200.591 23.8267 200.537 23.88C200.497 23.92 200.444 23.94 200.377 23.94H198.677C198.611 23.94 198.551 23.92 198.497 23.88C198.457 23.8267 198.437 23.7667 198.437 23.7C198.437 23.3533 198.264 23.0667 197.917 22.84C197.584 22.6 197.124 22.48 196.537 22.48C196.017 22.48 195.591 22.58 195.257 22.78C194.937 22.9667 194.777 23.2333 194.777 23.58C194.777 23.9 194.931 24.1467 195.237 24.32C195.557 24.48 196.084 24.66 196.817 24.86L197.257 24.98C197.964 25.1933 198.557 25.4133 199.037 25.64C199.517 25.8533 199.924 26.16 200.257 26.56C200.591 26.9467 200.757 27.4533 200.757 28.08C200.757 29.0267 200.384 29.7733 199.637 30.32C198.891 30.8533 197.897 31.12 196.657 31.12ZM208.121 22.42C208.121 22.4867 208.094 22.5467 208.041 22.6C208.001 22.64 207.948 22.66 207.881 22.66H205.841C205.774 22.66 205.741 22.6933 205.741 22.76V27.58C205.741 28.0867 205.848 28.4533 206.061 28.68C206.288 28.9067 206.641 29.02 207.121 29.02H207.721C207.788 29.02 207.841 29.0467 207.881 29.1C207.934 29.14 207.961 29.1933 207.961 29.26V30.76C207.961 30.9067 207.881 30.9933 207.721 31.02L206.681 31.04C205.628 31.04 204.841 30.86 204.321 30.5C203.801 30.14 203.534 29.46 203.521 28.46V22.76C203.521 22.6933 203.488 22.66 203.421 22.66H202.281C202.214 22.66 202.154 22.64 202.101 22.6C202.061 22.5467 202.041 22.4867 202.041 22.42V21.02C202.041 20.9533 202.061 20.9 202.101 20.86C202.154 20.8067 202.214 20.78 202.281 20.78H203.421C203.488 20.78 203.521 20.7467 203.521 20.68V18.34C203.521 18.2733 203.541 18.22 203.581 18.18C203.634 18.1267 203.694 18.1 203.761 18.1H205.501C205.568 18.1 205.621 18.1267 205.661 18.18C205.714 18.22 205.741 18.2733 205.741 18.34V20.68C205.741 20.7467 205.774 20.78 205.841 20.78H207.881C207.948 20.78 208.001 20.8067 208.041 20.86C208.094 20.9 208.121 20.9533 208.121 21.02V22.42ZM213.981 31.12C213.141 31.12 212.401 31 211.761 30.76C211.135 30.5067 210.648 30.1667 210.301 29.74C209.955 29.3 209.781 28.8133 209.781 28.28V28.1C209.781 28.0333 209.801 27.98 209.841 27.94C209.895 27.8867 209.955 27.86 210.021 27.86H211.781C211.848 27.86 211.901 27.8867 211.941 27.94C211.995 27.98 212.021 28.0333 212.021 28.1V28.14C212.021 28.4733 212.201 28.7667 212.561 29.02C212.935 29.26 213.401 29.38 213.961 29.38C214.495 29.38 214.928 29.2733 215.261 29.06C215.595 28.8333 215.761 28.5533 215.761 28.22C215.761 27.9133 215.621 27.6867 215.341 27.54C215.075 27.38 214.635 27.2133 214.021 27.04L213.261 26.8C212.581 26.6 212.008 26.3867 211.541 26.16C211.075 25.9333 210.681 25.6267 210.361 25.24C210.041 24.84 209.881 24.3333 209.881 23.72C209.881 22.7867 210.248 22.0467 210.981 21.5C211.715 20.94 212.681 20.66 213.881 20.66C214.695 20.66 215.408 20.7933 216.021 21.06C216.635 21.3133 217.108 21.6733 217.441 22.14C217.775 22.5933 217.941 23.1133 217.941 23.7C217.941 23.7667 217.915 23.8267 217.861 23.88C217.821 23.92 217.768 23.94 217.701 23.94H216.001C215.935 23.94 215.875 23.92 215.821 23.88C215.781 23.8267 215.761 23.7667 215.761 23.7C215.761 23.3533 215.588 23.0667 215.241 22.84C214.908 22.6 214.448 22.48 213.861 22.48C213.341 22.48 212.915 22.58 212.581 22.78C212.261 22.9667 212.101 23.2333 212.101 23.58C212.101 23.9 212.255 24.1467 212.561 24.32C212.881 24.48 213.408 24.66 214.141 24.86L214.581 24.98C215.288 25.1933 215.881 25.4133 216.361 25.64C216.841 25.8533 217.248 26.16 217.581 26.56C217.915 26.9467 218.081 27.4533 218.081 28.08C218.081 29.0267 217.708 29.7733 216.961 30.32C216.215 30.8533 215.221 31.12 213.981 31.12ZM128.906 44.62C129.746 44.62 130.486 44.7667 131.126 45.06C131.766 45.3533 132.259 45.76 132.606 46.28C132.952 46.7867 133.126 47.3667 133.126 48.02V54.76C133.126 54.8267 133.099 54.8867 133.046 54.94C133.006 54.98 132.952 55 132.886 55H131.046C130.979 55 130.919 54.98 130.866 54.94C130.826 54.8867 130.806 54.8267 130.806 54.76V54.12C130.806 54.08 130.792 54.06 130.766 54.06C130.739 54.0467 130.712 54.0533 130.686 54.08C130.032 54.8 129.086 55.16 127.846 55.16C126.846 55.16 126.019 54.9067 125.366 54.4C124.726 53.8933 124.406 53.14 124.406 52.14C124.406 51.1 124.766 50.2933 125.486 49.72C126.219 49.1333 127.246 48.84 128.566 48.84H130.706C130.772 48.84 130.806 48.8067 130.806 48.74V48.26C130.806 47.74 130.652 47.34 130.346 47.06C130.039 46.7667 129.579 46.62 128.966 46.62C128.459 46.62 128.046 46.7133 127.726 46.9C127.419 47.0733 127.226 47.32 127.146 47.64C127.106 47.8 127.012 47.8667 126.866 47.84L124.926 47.6C124.859 47.5867 124.799 47.5667 124.746 47.54C124.706 47.5 124.692 47.4533 124.706 47.4C124.812 46.5867 125.246 45.92 126.006 45.4C126.779 44.88 127.746 44.62 128.906 44.62ZM128.426 53.32C129.079 53.32 129.639 53.1467 130.106 52.8C130.572 52.4533 130.806 52.0133 130.806 51.48V50.54C130.806 50.4733 130.772 50.44 130.706 50.44H129.026C128.319 50.44 127.759 50.5733 127.346 50.84C126.946 51.1067 126.746 51.4867 126.746 51.98C126.746 52.4067 126.899 52.74 127.206 52.98C127.526 53.2067 127.932 53.32 128.426 53.32ZM144.079 40.84C145.052 40.84 145.912 41.04 146.659 41.44C147.405 41.84 147.985 42.4067 148.399 43.14C148.812 43.8733 149.019 44.72 149.019 45.68V50.48C149.019 51.6533 148.685 52.6533 148.019 53.48C147.365 54.2933 146.472 54.8133 145.339 55.04C145.285 55.0533 145.259 55.0933 145.259 55.16V56.84C145.259 56.9067 145.232 56.96 145.179 57C145.139 57.0533 145.085 57.08 145.019 57.08H143.179C143.112 57.08 143.052 57.0533 142.999 57C142.959 56.96 142.939 56.9067 142.939 56.84V55.16C142.939 55.1067 142.905 55.0667 142.839 55.04C141.719 54.8133 140.825 54.2933 140.159 53.48C139.492 52.6667 139.159 51.6667 139.159 50.48V45.68C139.159 44.72 139.365 43.8733 139.779 43.14C140.192 42.4067 140.765 41.84 141.499 41.44C142.245 41.04 143.105 40.84 144.079 40.84ZM146.699 45.56C146.699 44.7467 146.459 44.0933 145.979 43.6C145.499 43.0933 144.865 42.84 144.079 42.84C143.305 42.84 142.679 43.0933 142.199 43.6C141.719 44.0933 141.479 44.7467 141.479 45.56V50.44C141.479 51.2533 141.719 51.9133 142.199 52.42C142.679 52.9133 143.305 53.16 144.079 53.16C144.865 53.16 145.499 52.9133 145.979 52.42C146.459 51.9133 146.699 51.2533 146.699 50.44V45.56ZM157.237 45.02C157.237 44.9533 157.257 44.9 157.297 44.86C157.35 44.8067 157.41 44.78 157.477 44.78H159.297C159.364 44.78 159.417 44.8067 159.457 44.86C159.51 44.9 159.537 44.9533 159.537 45.02V54.76C159.537 54.8267 159.51 54.8867 159.457 54.94C159.417 54.98 159.364 55 159.297 55H157.477C157.41 55 157.35 54.98 157.297 54.94C157.257 54.8867 157.237 54.8267 157.237 54.76V54.12C157.237 54.08 157.224 54.0533 157.197 54.04C157.17 54.0267 157.144 54.04 157.117 54.08C156.57 54.7867 155.75 55.14 154.657 55.14C153.644 55.14 152.79 54.8467 152.097 54.26C151.417 53.6733 151.077 52.84 151.077 51.76V45.02C151.077 44.9533 151.097 44.9 151.137 44.86C151.19 44.8067 151.25 44.78 151.317 44.78H153.157C153.224 44.78 153.277 44.8067 153.317 44.86C153.37 44.9 153.397 44.9533 153.397 45.02V51.1C153.397 51.7267 153.557 52.2267 153.877 52.6C154.21 52.9733 154.67 53.16 155.257 53.16C155.857 53.16 156.337 52.9733 156.697 52.6C157.057 52.2267 157.237 51.7267 157.237 51.1V45.02ZM170.637 48.74C170.691 49.0733 170.717 49.4467 170.717 49.86L170.697 50.48C170.697 50.64 170.617 50.72 170.457 50.72H164.197C164.131 50.72 164.097 50.7533 164.097 50.82C164.137 51.26 164.197 51.56 164.277 51.72C164.597 52.68 165.377 53.1667 166.617 53.18C167.524 53.18 168.244 52.8067 168.777 52.06C168.831 51.98 168.897 51.94 168.977 51.94C169.031 51.94 169.077 51.96 169.117 52L170.357 53.02C170.477 53.1133 170.497 53.22 170.417 53.34C170.004 53.9267 169.451 54.38 168.757 54.7C168.077 55.02 167.317 55.18 166.477 55.18C165.437 55.18 164.551 54.9467 163.817 54.48C163.097 54.0133 162.571 53.36 162.237 52.52C161.931 51.8 161.777 50.8 161.777 49.52C161.777 48.7467 161.857 48.12 162.017 47.64C162.284 46.7067 162.784 45.9733 163.517 45.44C164.264 44.8933 165.157 44.62 166.197 44.62C168.824 44.62 170.304 45.9933 170.637 48.74ZM166.197 46.62C165.704 46.62 165.291 46.7467 164.957 47C164.637 47.24 164.411 47.58 164.277 48.02C164.197 48.2467 164.144 48.54 164.117 48.9C164.091 48.9667 164.117 49 164.197 49H168.257C168.324 49 168.357 48.9667 168.357 48.9C168.331 48.5667 168.291 48.3133 168.237 48.14C168.117 47.66 167.877 47.2867 167.517 47.02C167.171 46.7533 166.731 46.62 166.197 46.62ZM177.598 44.66C178.024 44.66 178.398 44.7467 178.718 44.92C178.824 44.9733 178.864 45.0733 178.838 45.22L178.498 47.02C178.484 47.18 178.391 47.2267 178.218 47.16C178.018 47.0933 177.784 47.06 177.518 47.06C177.344 47.06 177.211 47.0667 177.118 47.08C176.558 47.1067 176.091 47.3067 175.718 47.68C175.344 48.04 175.158 48.5133 175.158 49.1V54.76C175.158 54.8267 175.131 54.8867 175.078 54.94C175.038 54.98 174.984 55 174.918 55H173.078C173.011 55 172.951 54.98 172.898 54.94C172.858 54.8867 172.838 54.8267 172.838 54.76V45.02C172.838 44.9533 172.858 44.9 172.898 44.86C172.951 44.8067 173.011 44.78 173.078 44.78H174.918C174.984 44.78 175.038 44.8067 175.078 44.86C175.131 44.9 175.158 44.9533 175.158 45.02V45.92C175.158 45.9733 175.164 46.0067 175.178 46.02C175.204 46.02 175.231 46 175.258 45.96C175.818 45.0933 176.598 44.66 177.598 44.66ZM180.489 58.98C180.449 58.98 180.416 58.9533 180.389 58.9C180.363 58.86 180.349 58.8067 180.349 58.74V57.3C180.349 57.2333 180.369 57.1733 180.409 57.12C180.463 57.08 180.523 57.06 180.589 57.06H180.609C181.156 57.0467 181.583 56.9867 181.889 56.88C182.196 56.7867 182.449 56.6 182.649 56.32C182.849 56.04 183.029 55.62 183.189 55.06C183.203 55.0333 183.203 54.9933 183.189 54.94L179.889 45.04C179.876 45.0133 179.869 44.98 179.869 44.94C179.869 44.82 179.936 44.76 180.069 44.76H182.029C182.176 44.76 182.269 44.8267 182.309 44.96L184.309 52C184.323 52.04 184.343 52.06 184.369 52.06C184.396 52.06 184.416 52.04 184.429 52L186.429 44.96C186.469 44.8267 186.563 44.76 186.709 44.76H188.609C188.689 44.76 188.743 44.7867 188.769 44.84C188.809 44.88 188.816 44.9467 188.789 45.04L185.269 55.56C184.936 56.5067 184.609 57.2133 184.289 57.68C183.969 58.1467 183.529 58.48 182.969 58.68C182.423 58.88 181.643 58.98 180.629 58.98H180.489Z" fill="white"/>
<rect y="231" width="172" height="45" rx="22.5" fill="#FEB139"/>
<path d="M27.7782 260C27.7115 260 27.6515 259.98 27.5982 259.94C27.5582 259.887 27.5382 259.827 27.5382 259.76V246.24C27.5382 246.173 27.5582 246.12 27.5982 246.08C27.6515 246.027 27.7115 246 27.7782 246H29.6182C29.6848 246 29.7382 246.027 29.7782 246.08C29.8315 246.12 29.8582 246.173 29.8582 246.24V257.9C29.8582 257.967 29.8915 258 29.9582 258H36.6582C36.7248 258 36.7782 258.027 36.8182 258.08C36.8715 258.12 36.8982 258.173 36.8982 258.24V259.76C36.8982 259.827 36.8715 259.887 36.8182 259.94C36.7782 259.98 36.7248 260 36.6582 260H27.7782ZM40.0639 248.38C39.6506 248.38 39.3106 248.247 39.0439 247.98C38.7773 247.713 38.6439 247.373 38.6439 246.96C38.6439 246.547 38.7773 246.207 39.0439 245.94C39.3106 245.673 39.6506 245.54 40.0639 245.54C40.4773 245.54 40.8173 245.673 41.0839 245.94C41.3506 246.207 41.4839 246.547 41.4839 246.96C41.4839 247.373 41.3506 247.713 41.0839 247.98C40.8173 248.247 40.4773 248.38 40.0639 248.38ZM39.1039 260C39.0373 260 38.9773 259.98 38.9239 259.94C38.8839 259.887 38.8639 259.827 38.8639 259.76V250C38.8639 249.933 38.8839 249.88 38.9239 249.84C38.9773 249.787 39.0373 249.76 39.1039 249.76H40.9439C41.0106 249.76 41.0639 249.787 41.1039 249.84C41.1573 249.88 41.1839 249.933 41.1839 250V259.76C41.1839 259.827 41.1573 259.887 41.1039 259.94C41.0639 259.98 41.0106 260 40.9439 260H39.1039ZM46.6016 260C46.4683 260 46.3816 259.933 46.3416 259.8L43.1216 250.04C43.1083 250.013 43.1016 249.98 43.1016 249.94C43.1016 249.82 43.1749 249.76 43.3216 249.76H45.3616C45.5083 249.76 45.6016 249.827 45.6416 249.96L47.5816 256.64C47.5949 256.68 47.6149 256.7 47.6416 256.7C47.6683 256.7 47.6883 256.68 47.7016 256.64L49.6416 249.96C49.6816 249.827 49.7749 249.76 49.9216 249.76L51.9616 249.8C52.0416 249.8 52.1016 249.827 52.1416 249.88C52.1816 249.92 52.1883 249.987 52.1616 250.08L48.9616 259.8C48.9216 259.933 48.8349 260 48.7016 260H46.6016ZM61.9929 253.74C62.0462 254.073 62.0729 254.447 62.0729 254.86L62.0529 255.48C62.0529 255.64 61.9729 255.72 61.8129 255.72H55.5529C55.4862 255.72 55.4529 255.753 55.4529 255.82C55.4929 256.26 55.5529 256.56 55.6329 256.72C55.9529 257.68 56.7329 258.167 57.9729 258.18C58.8795 258.18 59.5995 257.807 60.1329 257.06C60.1862 256.98 60.2529 256.94 60.3329 256.94C60.3862 256.94 60.4329 256.96 60.4729 257L61.7129 258.02C61.8329 258.113 61.8529 258.22 61.7729 258.34C61.3595 258.927 60.8062 259.38 60.1129 259.7C59.4329 260.02 58.6729 260.18 57.8329 260.18C56.7929 260.18 55.9062 259.947 55.1729 259.48C54.4529 259.013 53.9262 258.36 53.5929 257.52C53.2862 256.8 53.1329 255.8 53.1329 254.52C53.1329 253.747 53.2129 253.12 53.3729 252.64C53.6395 251.707 54.1395 250.973 54.8729 250.44C55.6195 249.893 56.5129 249.62 57.5529 249.62C60.1795 249.62 61.6595 250.993 61.9929 253.74ZM57.5529 251.62C57.0595 251.62 56.6462 251.747 56.3129 252C55.9929 252.24 55.7662 252.58 55.6329 253.02C55.5529 253.247 55.4995 253.54 55.4729 253.9C55.4462 253.967 55.4729 254 55.5529 254H59.6129C59.6795 254 59.7129 253.967 59.7129 253.9C59.6862 253.567 59.6462 253.313 59.5929 253.14C59.4729 252.66 59.2329 252.287 58.8729 252.02C58.5262 251.753 58.0862 251.62 57.5529 251.62ZM72.9371 260.16C71.8971 260.16 70.9904 259.993 70.2171 259.66C69.4437 259.327 68.8437 258.86 68.4171 258.26C68.0037 257.66 67.7971 256.953 67.7971 256.14V255.64C67.7971 255.573 67.8171 255.52 67.8571 255.48C67.9104 255.427 67.9704 255.4 68.0371 255.4H69.8171C69.8837 255.4 69.9371 255.427 69.9771 255.48C70.0304 255.52 70.0571 255.573 70.0571 255.64V256.02C70.0571 256.633 70.3304 257.147 70.8771 257.56C71.4237 257.96 72.1704 258.16 73.1171 258.16C73.9304 258.16 74.5437 257.987 74.9571 257.64C75.3704 257.293 75.5771 256.847 75.5771 256.3C75.5771 255.927 75.4637 255.613 75.2371 255.36C75.0104 255.093 74.6837 254.853 74.2571 254.64C73.8437 254.427 73.2171 254.16 72.3771 253.84C71.4304 253.493 70.6637 253.167 70.0771 252.86C69.4904 252.553 68.9971 252.14 68.5971 251.62C68.2104 251.087 68.0171 250.427 68.0171 249.64C68.0171 248.467 68.4437 247.54 69.2971 246.86C70.1504 246.18 71.2904 245.84 72.7171 245.84C73.7171 245.84 74.5971 246.013 75.3571 246.36C76.1304 246.707 76.7304 247.193 77.1571 247.82C77.5837 248.433 77.7971 249.147 77.7971 249.96V250.3C77.7971 250.367 77.7704 250.427 77.7171 250.48C77.6771 250.52 77.6237 250.54 77.5571 250.54H75.7571C75.6904 250.54 75.6304 250.52 75.5771 250.48C75.5371 250.427 75.5171 250.367 75.5171 250.3V250.08C75.5171 249.453 75.2571 248.927 74.7371 248.5C74.2304 248.06 73.5237 247.84 72.6171 247.84C71.8837 247.84 71.3104 247.993 70.8971 248.3C70.4971 248.607 70.2971 249.04 70.2971 249.6C70.2971 250 70.4037 250.327 70.6171 250.58C70.8304 250.833 71.1504 251.067 71.5771 251.28C72.0037 251.48 72.6637 251.74 73.5571 252.06C74.5037 252.42 75.2571 252.747 75.8171 253.04C76.3904 253.333 76.8771 253.747 77.2771 254.28C77.6904 254.8 77.8971 255.453 77.8971 256.24C77.8971 257.44 77.4504 258.393 76.5571 259.1C75.6771 259.807 74.4704 260.16 72.9371 260.16ZM88.6335 253.74C88.6868 254.073 88.7135 254.447 88.7135 254.86L88.6935 255.48C88.6935 255.64 88.6135 255.72 88.4535 255.72H82.1935C82.1268 255.72 82.0935 255.753 82.0935 255.82C82.1335 256.26 82.1935 256.56 82.2735 256.72C82.5935 257.68 83.3735 258.167 84.6135 258.18C85.5201 258.18 86.2401 257.807 86.7735 257.06C86.8268 256.98 86.8935 256.94 86.9735 256.94C87.0268 256.94 87.0735 256.96 87.1135 257L88.3535 258.02C88.4735 258.113 88.4935 258.22 88.4135 258.34C88.0001 258.927 87.4468 259.38 86.7535 259.7C86.0735 260.02 85.3135 260.18 84.4735 260.18C83.4335 260.18 82.5468 259.947 81.8135 259.48C81.0935 259.013 80.5668 258.36 80.2335 257.52C79.9268 256.8 79.7735 255.8 79.7735 254.52C79.7735 253.747 79.8535 253.12 80.0135 252.64C80.2801 251.707 80.7801 250.973 81.5135 250.44C82.2601 249.893 83.1535 249.62 84.1935 249.62C86.8201 249.62 88.3001 250.993 88.6335 253.74ZM84.1935 251.62C83.7001 251.62 83.2868 251.747 82.9535 252C82.6335 252.24 82.4068 252.58 82.2735 253.02C82.1935 253.247 82.1401 253.54 82.1135 253.9C82.0868 253.967 82.1135 254 82.1935 254H86.2535C86.3201 254 86.3535 253.967 86.3535 253.9C86.3268 253.567 86.2868 253.313 86.2335 253.14C86.1135 252.66 85.8735 252.287 85.5135 252.02C85.1668 251.753 84.7268 251.62 84.1935 251.62ZM94.4775 260.12C93.6375 260.12 92.8975 260 92.2575 259.76C91.6309 259.507 91.1442 259.167 90.7975 258.74C90.4509 258.3 90.2775 257.813 90.2775 257.28V257.1C90.2775 257.033 90.2975 256.98 90.3375 256.94C90.3909 256.887 90.4509 256.86 90.5175 256.86H92.2775C92.3442 256.86 92.3975 256.887 92.4375 256.94C92.4909 256.98 92.5175 257.033 92.5175 257.1V257.14C92.5175 257.473 92.6975 257.767 93.0575 258.02C93.4309 258.26 93.8975 258.38 94.4575 258.38C94.9909 258.38 95.4242 258.273 95.7575 258.06C96.0909 257.833 96.2575 257.553 96.2575 257.22C96.2575 256.913 96.1175 256.687 95.8375 256.54C95.5709 256.38 95.1309 256.213 94.5175 256.04L93.7575 255.8C93.0775 255.6 92.5042 255.387 92.0375 255.16C91.5709 254.933 91.1775 254.627 90.8575 254.24C90.5375 253.84 90.3775 253.333 90.3775 252.72C90.3775 251.787 90.7442 251.047 91.4775 250.5C92.2109 249.94 93.1775 249.66 94.3775 249.66C95.1909 249.66 95.9042 249.793 96.5175 250.06C97.1309 250.313 97.6042 250.673 97.9375 251.14C98.2709 251.593 98.4375 252.113 98.4375 252.7C98.4375 252.767 98.4109 252.827 98.3575 252.88C98.3175 252.92 98.2642 252.94 98.1975 252.94H96.4975C96.4309 252.94 96.3709 252.92 96.3175 252.88C96.2775 252.827 96.2575 252.767 96.2575 252.7C96.2575 252.353 96.0842 252.067 95.7375 251.84C95.4042 251.6 94.9442 251.48 94.3575 251.48C93.8375 251.48 93.4109 251.58 93.0775 251.78C92.7575 251.967 92.5975 252.233 92.5975 252.58C92.5975 252.9 92.7509 253.147 93.0575 253.32C93.3775 253.48 93.9042 253.66 94.6375 253.86L95.0775 253.98C95.7842 254.193 96.3775 254.413 96.8575 254.64C97.3375 254.853 97.7442 255.16 98.0775 255.56C98.4109 255.947 98.5775 256.453 98.5775 257.08C98.5775 258.027 98.2042 258.773 97.4575 259.32C96.7109 259.853 95.7175 260.12 94.4775 260.12ZM104.146 260.12C103.306 260.12 102.566 260 101.926 259.76C101.299 259.507 100.812 259.167 100.466 258.74C100.119 258.3 99.9455 257.813 99.9455 257.28V257.1C99.9455 257.033 99.9655 256.98 100.006 256.94C100.059 256.887 100.119 256.86 100.186 256.86H101.946C102.012 256.86 102.066 256.887 102.106 256.94C102.159 256.98 102.186 257.033 102.186 257.1V257.14C102.186 257.473 102.366 257.767 102.726 258.02C103.099 258.26 103.566 258.38 104.126 258.38C104.659 258.38 105.092 258.273 105.426 258.06C105.759 257.833 105.926 257.553 105.926 257.22C105.926 256.913 105.786 256.687 105.506 256.54C105.239 256.38 104.799 256.213 104.186 256.04L103.426 255.8C102.746 255.6 102.172 255.387 101.706 255.16C101.239 254.933 100.846 254.627 100.526 254.24C100.206 253.84 100.046 253.333 100.046 252.72C100.046 251.787 100.412 251.047 101.146 250.5C101.879 249.94 102.846 249.66 104.046 249.66C104.859 249.66 105.572 249.793 106.186 250.06C106.799 250.313 107.272 250.673 107.606 251.14C107.939 251.593 108.106 252.113 108.106 252.7C108.106 252.767 108.079 252.827 108.026 252.88C107.986 252.92 107.932 252.94 107.866 252.94H106.166C106.099 252.94 106.039 252.92 105.986 252.88C105.946 252.827 105.926 252.767 105.926 252.7C105.926 252.353 105.752 252.067 105.406 251.84C105.072 251.6 104.612 251.48 104.026 251.48C103.506 251.48 103.079 251.58 102.746 251.78C102.426 251.967 102.266 252.233 102.266 252.58C102.266 252.9 102.419 253.147 102.726 253.32C103.046 253.48 103.572 253.66 104.306 253.86L104.746 253.98C105.452 254.193 106.046 254.413 106.526 254.64C107.006 254.853 107.412 255.16 107.746 255.56C108.079 255.947 108.246 256.453 108.246 257.08C108.246 258.027 107.872 258.773 107.126 259.32C106.379 259.853 105.386 260.12 104.146 260.12ZM111.529 248.38C111.115 248.38 110.775 248.247 110.509 247.98C110.242 247.713 110.109 247.373 110.109 246.96C110.109 246.547 110.242 246.207 110.509 245.94C110.775 245.673 111.115 245.54 111.529 245.54C111.942 245.54 112.282 245.673 112.549 245.94C112.815 246.207 112.949 246.547 112.949 246.96C112.949 247.373 112.815 247.713 112.549 247.98C112.282 248.247 111.942 248.38 111.529 248.38ZM110.569 260C110.502 260 110.442 259.98 110.389 259.94C110.349 259.887 110.329 259.827 110.329 259.76V250C110.329 249.933 110.349 249.88 110.389 249.84C110.442 249.787 110.502 249.76 110.569 249.76H112.409C112.475 249.76 112.529 249.787 112.569 249.84C112.622 249.88 112.649 249.933 112.649 250V259.76C112.649 259.827 112.622 259.887 112.569 259.94C112.529 259.98 112.475 260 112.409 260H110.569ZM119.646 260.16C118.593 260.16 117.686 259.893 116.926 259.36C116.18 258.827 115.653 258.087 115.346 257.14C115.12 256.42 115.006 255.66 115.006 254.86C115.006 254.007 115.113 253.247 115.326 252.58C115.633 251.647 116.166 250.92 116.926 250.4C117.686 249.88 118.6 249.62 119.666 249.62C120.68 249.62 121.553 249.88 122.286 250.4C123.033 250.92 123.56 251.64 123.866 252.56C124.106 253.2 124.226 253.96 124.226 254.84C124.226 255.68 124.113 256.44 123.886 257.12C123.58 258.067 123.053 258.813 122.306 259.36C121.56 259.893 120.673 260.16 119.646 260.16ZM119.646 258.16C120.14 258.16 120.56 258.02 120.906 257.74C121.266 257.46 121.526 257.067 121.686 256.56C121.82 256.12 121.886 255.56 121.886 254.88C121.886 254.16 121.82 253.6 121.686 253.2C121.54 252.693 121.286 252.307 120.926 252.04C120.566 251.76 120.126 251.62 119.606 251.62C119.113 251.62 118.686 251.76 118.326 252.04C117.966 252.307 117.706 252.693 117.546 253.2C117.413 253.667 117.346 254.227 117.346 254.88C117.346 255.533 117.413 256.093 117.546 256.56C117.693 257.067 117.946 257.46 118.306 257.74C118.68 258.02 119.126 258.16 119.646 258.16ZM131.32 249.62C132.4 249.62 133.26 249.94 133.9 250.58C134.553 251.22 134.88 252.093 134.88 253.2V259.76C134.88 259.827 134.853 259.887 134.8 259.94C134.76 259.98 134.706 260 134.64 260H132.8C132.733 260 132.673 259.98 132.62 259.94C132.58 259.887 132.56 259.827 132.56 259.76V253.68C132.56 253.067 132.386 252.573 132.04 252.2C131.693 251.813 131.233 251.62 130.66 251.62C130.086 251.62 129.62 251.807 129.26 252.18C128.913 252.553 128.74 253.047 128.74 253.66V259.76C128.74 259.827 128.713 259.887 128.66 259.94C128.62 259.98 128.566 260 128.5 260H126.66C126.593 260 126.533 259.98 126.48 259.94C126.44 259.887 126.42 259.827 126.42 259.76V250.02C126.42 249.953 126.44 249.9 126.48 249.86C126.533 249.807 126.593 249.78 126.66 249.78H128.5C128.566 249.78 128.62 249.807 128.66 249.86C128.713 249.9 128.74 249.953 128.74 250.02V250.66C128.74 250.7 128.753 250.727 128.78 250.74C128.806 250.753 128.826 250.74 128.84 250.7C129.386 249.98 130.213 249.62 131.32 249.62ZM141.099 260.12C140.259 260.12 139.519 260 138.879 259.76C138.252 259.507 137.765 259.167 137.419 258.74C137.072 258.3 136.899 257.813 136.899 257.28V257.1C136.899 257.033 136.919 256.98 136.959 256.94C137.012 256.887 137.072 256.86 137.139 256.86H138.899C138.965 256.86 139.019 256.887 139.059 256.94C139.112 256.98 139.139 257.033 139.139 257.1V257.14C139.139 257.473 139.319 257.767 139.679 258.02C140.052 258.26 140.519 258.38 141.079 258.38C141.612 258.38 142.045 258.273 142.379 258.06C142.712 257.833 142.879 257.553 142.879 257.22C142.879 256.913 142.739 256.687 142.459 256.54C142.192 256.38 141.752 256.213 141.139 256.04L140.379 255.8C139.699 255.6 139.125 255.387 138.659 255.16C138.192 254.933 137.799 254.627 137.479 254.24C137.159 253.84 136.999 253.333 136.999 252.72C136.999 251.787 137.365 251.047 138.099 250.5C138.832 249.94 139.799 249.66 140.999 249.66C141.812 249.66 142.525 249.793 143.139 250.06C143.752 250.313 144.225 250.673 144.559 251.14C144.892 251.593 145.059 252.113 145.059 252.7C145.059 252.767 145.032 252.827 144.979 252.88C144.939 252.92 144.885 252.94 144.819 252.94H143.119C143.052 252.94 142.992 252.92 142.939 252.88C142.899 252.827 142.879 252.767 142.879 252.7C142.879 252.353 142.705 252.067 142.359 251.84C142.025 251.6 141.565 251.48 140.979 251.48C140.459 251.48 140.032 251.58 139.699 251.78C139.379 251.967 139.219 252.233 139.219 252.58C139.219 252.9 139.372 253.147 139.679 253.32C139.999 253.48 140.525 253.66 141.259 253.86L141.699 253.98C142.405 254.193 142.999 254.413 143.479 254.64C143.959 254.853 144.365 255.16 144.699 255.56C145.032 255.947 145.199 256.453 145.199 257.08C145.199 258.027 144.825 258.773 144.079 259.32C143.332 259.853 142.339 260.12 141.099 260.12Z" fill="white"/>
<rect x="126" y="297" width="172" height="45" rx="22.5" fill="#FEB139"/>
<path d="M149.142 326.16C148.142 326.16 147.262 325.967 146.502 325.58C145.742 325.18 145.155 324.627 144.742 323.92C144.329 323.213 144.122 322.393 144.122 321.46V316.52C144.122 315.587 144.329 314.767 144.742 314.06C145.155 313.353 145.742 312.807 146.502 312.42C147.262 312.033 148.142 311.84 149.142 311.84C150.129 311.84 151.002 312.027 151.762 312.4C152.522 312.773 153.109 313.3 153.522 313.98C153.935 314.66 154.142 315.447 154.142 316.34C154.142 316.407 154.115 316.467 154.062 316.52C154.022 316.56 153.969 316.58 153.902 316.58L152.062 316.68C151.902 316.68 151.822 316.607 151.822 316.46C151.822 315.673 151.575 315.04 151.082 314.56C150.602 314.08 149.955 313.84 149.142 313.84C148.329 313.84 147.675 314.08 147.182 314.56C146.689 315.04 146.442 315.673 146.442 316.46V321.56C146.442 322.333 146.689 322.96 147.182 323.44C147.675 323.92 148.329 324.16 149.142 324.16C149.955 324.16 150.602 323.927 151.082 323.46C151.575 322.98 151.822 322.347 151.822 321.56C151.822 321.413 151.902 321.34 152.062 321.34L153.902 321.42C153.969 321.42 154.022 321.44 154.062 321.48C154.115 321.52 154.142 321.567 154.142 321.62C154.142 322.527 153.935 323.327 153.522 324.02C153.109 324.7 152.522 325.227 151.762 325.6C151.002 325.973 150.129 326.16 149.142 326.16ZM162.45 316.02C162.45 315.953 162.47 315.9 162.51 315.86C162.563 315.807 162.623 315.78 162.69 315.78H164.51C164.577 315.78 164.63 315.807 164.67 315.86C164.723 315.9 164.75 315.953 164.75 316.02V325.76C164.75 325.827 164.723 325.887 164.67 325.94C164.63 325.98 164.577 326 164.51 326H162.69C162.623 326 162.563 325.98 162.51 325.94C162.47 325.887 162.45 325.827 162.45 325.76V325.12C162.45 325.08 162.437 325.053 162.41 325.04C162.383 325.027 162.357 325.04 162.33 325.08C161.783 325.787 160.963 326.14 159.87 326.14C158.857 326.14 158.003 325.847 157.31 325.26C156.63 324.673 156.29 323.84 156.29 322.76V316.02C156.29 315.953 156.31 315.9 156.35 315.86C156.403 315.807 156.463 315.78 156.53 315.78H158.37C158.437 315.78 158.49 315.807 158.53 315.86C158.583 315.9 158.61 315.953 158.61 316.02V322.1C158.61 322.727 158.77 323.227 159.09 323.6C159.423 323.973 159.883 324.16 160.47 324.16C161.07 324.16 161.55 323.973 161.91 323.6C162.27 323.227 162.45 322.727 162.45 322.1V316.02ZM171.03 326.12C170.19 326.12 169.45 326 168.81 325.76C168.184 325.507 167.697 325.167 167.35 324.74C167.004 324.3 166.83 323.813 166.83 323.28V323.1C166.83 323.033 166.85 322.98 166.89 322.94C166.944 322.887 167.004 322.86 167.07 322.86H168.83C168.897 322.86 168.95 322.887 168.99 322.94C169.044 322.98 169.07 323.033 169.07 323.1V323.14C169.07 323.473 169.25 323.767 169.61 324.02C169.984 324.26 170.45 324.38 171.01 324.38C171.544 324.38 171.977 324.273 172.31 324.06C172.644 323.833 172.81 323.553 172.81 323.22C172.81 322.913 172.67 322.687 172.39 322.54C172.124 322.38 171.684 322.213 171.07 322.04L170.31 321.8C169.63 321.6 169.057 321.387 168.59 321.16C168.124 320.933 167.73 320.627 167.41 320.24C167.09 319.84 166.93 319.333 166.93 318.72C166.93 317.787 167.297 317.047 168.03 316.5C168.764 315.94 169.73 315.66 170.93 315.66C171.744 315.66 172.457 315.793 173.07 316.06C173.684 316.313 174.157 316.673 174.49 317.14C174.824 317.593 174.99 318.113 174.99 318.7C174.99 318.767 174.964 318.827 174.91 318.88C174.87 318.92 174.817 318.94 174.75 318.94H173.05C172.984 318.94 172.924 318.92 172.87 318.88C172.83 318.827 172.81 318.767 172.81 318.7C172.81 318.353 172.637 318.067 172.29 317.84C171.957 317.6 171.497 317.48 170.91 317.48C170.39 317.48 169.964 317.58 169.63 317.78C169.31 317.967 169.15 318.233 169.15 318.58C169.15 318.9 169.304 319.147 169.61 319.32C169.93 319.48 170.457 319.66 171.19 319.86L171.63 319.98C172.337 320.193 172.93 320.413 173.41 320.64C173.89 320.853 174.297 321.16 174.63 321.56C174.964 321.947 175.13 322.453 175.13 323.08C175.13 324.027 174.757 324.773 174.01 325.32C173.264 325.853 172.27 326.12 171.03 326.12ZM182.494 317.42C182.494 317.487 182.467 317.547 182.414 317.6C182.374 317.64 182.321 317.66 182.254 317.66H180.214C180.147 317.66 180.114 317.693 180.114 317.76V322.58C180.114 323.087 180.221 323.453 180.434 323.68C180.661 323.907 181.014 324.02 181.494 324.02H182.094C182.161 324.02 182.214 324.047 182.254 324.1C182.307 324.14 182.334 324.193 182.334 324.26V325.76C182.334 325.907 182.254 325.993 182.094 326.02L181.054 326.04C180.001 326.04 179.214 325.86 178.694 325.5C178.174 325.14 177.907 324.46 177.894 323.46V317.76C177.894 317.693 177.861 317.66 177.794 317.66H176.654C176.587 317.66 176.527 317.64 176.474 317.6C176.434 317.547 176.414 317.487 176.414 317.42V316.02C176.414 315.953 176.434 315.9 176.474 315.86C176.527 315.807 176.587 315.78 176.654 315.78H177.794C177.861 315.78 177.894 315.747 177.894 315.68V313.34C177.894 313.273 177.914 313.22 177.954 313.18C178.007 313.127 178.067 313.1 178.134 313.1H179.874C179.941 313.1 179.994 313.127 180.034 313.18C180.087 313.22 180.114 313.273 180.114 313.34V315.68C180.114 315.747 180.147 315.78 180.214 315.78H182.254C182.321 315.78 182.374 315.807 182.414 315.86C182.467 315.9 182.494 315.953 182.494 316.02V317.42ZM188.699 326.16C187.646 326.16 186.739 325.893 185.979 325.36C185.232 324.827 184.706 324.087 184.399 323.14C184.172 322.42 184.059 321.66 184.059 320.86C184.059 320.007 184.166 319.247 184.379 318.58C184.686 317.647 185.219 316.92 185.979 316.4C186.739 315.88 187.652 315.62 188.719 315.62C189.732 315.62 190.606 315.88 191.339 316.4C192.086 316.92 192.612 317.64 192.919 318.56C193.159 319.2 193.279 319.96 193.279 320.84C193.279 321.68 193.166 322.44 192.939 323.12C192.632 324.067 192.106 324.813 191.359 325.36C190.612 325.893 189.726 326.16 188.699 326.16ZM188.699 324.16C189.192 324.16 189.612 324.02 189.959 323.74C190.319 323.46 190.579 323.067 190.739 322.56C190.872 322.12 190.939 321.56 190.939 320.88C190.939 320.16 190.872 319.6 190.739 319.2C190.592 318.693 190.339 318.307 189.979 318.04C189.619 317.76 189.179 317.62 188.659 317.62C188.166 317.62 187.739 317.76 187.379 318.04C187.019 318.307 186.759 318.693 186.599 319.2C186.466 319.667 186.399 320.227 186.399 320.88C186.399 321.533 186.466 322.093 186.599 322.56C186.746 323.067 186.999 323.46 187.359 323.74C187.732 324.02 188.179 324.16 188.699 324.16ZM206.412 315.62C207.439 315.62 208.239 315.933 208.812 316.56C209.399 317.173 209.692 318.033 209.692 319.14V325.76C209.692 325.827 209.666 325.887 209.612 325.94C209.572 325.98 209.519 326 209.452 326H207.632C207.566 326 207.506 325.98 207.452 325.94C207.412 325.887 207.392 325.827 207.392 325.76V319.62C207.392 319.007 207.226 318.52 206.892 318.16C206.572 317.8 206.139 317.62 205.592 317.62C205.046 317.62 204.599 317.8 204.252 318.16C203.906 318.52 203.732 319 203.732 319.6V325.76C203.732 325.827 203.706 325.887 203.652 325.94C203.612 325.98 203.559 326 203.492 326H201.672C201.606 326 201.546 325.98 201.492 325.94C201.452 325.887 201.432 325.827 201.432 325.76V319.62C201.432 319.007 201.266 318.52 200.932 318.16C200.599 317.8 200.159 317.62 199.612 317.62C199.106 317.62 198.686 317.767 198.352 318.06C198.032 318.353 197.846 318.753 197.792 319.26V325.76C197.792 325.827 197.766 325.887 197.712 325.94C197.672 325.98 197.619 326 197.552 326H195.712C195.646 326 195.586 325.98 195.532 325.94C195.492 325.887 195.472 325.827 195.472 325.76V316.02C195.472 315.953 195.492 315.9 195.532 315.86C195.586 315.807 195.646 315.78 195.712 315.78H197.552C197.619 315.78 197.672 315.807 197.712 315.86C197.766 315.9 197.792 315.953 197.792 316.02V316.68C197.792 316.72 197.806 316.747 197.832 316.76C197.859 316.773 197.886 316.76 197.912 316.72C198.206 316.347 198.566 316.073 198.992 315.9C199.432 315.713 199.919 315.62 200.452 315.62C201.106 315.62 201.679 315.753 202.172 316.02C202.666 316.287 203.046 316.673 203.312 317.18C203.352 317.233 203.399 317.233 203.452 317.18C203.746 316.647 204.152 316.253 204.672 316C205.192 315.747 205.772 315.62 206.412 315.62ZM224.958 326C224.825 326 224.738 325.933 224.698 325.8L224.038 323.66C224.012 323.607 223.978 323.58 223.938 323.58H218.658C218.618 323.58 218.585 323.607 218.558 323.66L217.898 325.8C217.858 325.933 217.772 326 217.638 326H215.638C215.558 326 215.498 325.98 215.458 325.94C215.418 325.887 215.412 325.813 215.438 325.72L219.778 312.2C219.818 312.067 219.905 312 220.038 312H222.538C222.672 312 222.758 312.067 222.798 312.2L227.158 325.72C227.172 325.747 227.178 325.78 227.178 325.82C227.178 325.94 227.105 326 226.958 326H224.958ZM219.178 321.64C219.165 321.72 219.192 321.76 219.258 321.76H223.318C223.398 321.76 223.425 321.72 223.398 321.64L221.338 314.94C221.325 314.887 221.305 314.86 221.278 314.86C221.252 314.86 221.232 314.887 221.218 314.94L219.178 321.64ZM233.787 315.66C234.214 315.66 234.587 315.747 234.907 315.92C235.014 315.973 235.054 316.073 235.027 316.22L234.687 318.02C234.674 318.18 234.58 318.227 234.407 318.16C234.207 318.093 233.974 318.06 233.707 318.06C233.534 318.06 233.4 318.067 233.307 318.08C232.747 318.107 232.28 318.307 231.907 318.68C231.534 319.04 231.347 319.513 231.347 320.1V325.76C231.347 325.827 231.32 325.887 231.267 325.94C231.227 325.98 231.174 326 231.107 326H229.267C229.2 326 229.14 325.98 229.087 325.94C229.047 325.887 229.027 325.827 229.027 325.76V316.02C229.027 315.953 229.047 315.9 229.087 315.86C229.14 315.807 229.2 315.78 229.267 315.78H231.107C231.174 315.78 231.227 315.807 231.267 315.86C231.32 315.9 231.347 315.953 231.347 316.02V316.92C231.347 316.973 231.354 317.007 231.367 317.02C231.394 317.02 231.42 317 231.447 316.96C232.007 316.093 232.787 315.66 233.787 315.66ZM242.142 317.42C242.142 317.487 242.116 317.547 242.062 317.6C242.022 317.64 241.969 317.66 241.902 317.66H239.862C239.796 317.66 239.762 317.693 239.762 317.76V322.58C239.762 323.087 239.869 323.453 240.082 323.68C240.309 323.907 240.662 324.02 241.142 324.02H241.742C241.809 324.02 241.862 324.047 241.902 324.1C241.956 324.14 241.982 324.193 241.982 324.26V325.76C241.982 325.907 241.902 325.993 241.742 326.02L240.702 326.04C239.649 326.04 238.862 325.86 238.342 325.5C237.822 325.14 237.556 324.46 237.542 323.46V317.76C237.542 317.693 237.509 317.66 237.442 317.66H236.302C236.236 317.66 236.176 317.64 236.122 317.6C236.082 317.547 236.062 317.487 236.062 317.42V316.02C236.062 315.953 236.082 315.9 236.122 315.86C236.176 315.807 236.236 315.78 236.302 315.78H237.442C237.509 315.78 237.542 315.747 237.542 315.68V313.34C237.542 313.273 237.562 313.22 237.602 313.18C237.656 313.127 237.716 313.1 237.782 313.1H239.522C239.589 313.1 239.642 313.127 239.682 313.18C239.736 313.22 239.762 313.273 239.762 313.34V315.68C239.762 315.747 239.796 315.78 239.862 315.78H241.902C241.969 315.78 242.022 315.807 242.062 315.86C242.116 315.9 242.142 315.953 242.142 316.02V317.42ZM245.523 314.38C245.11 314.38 244.77 314.247 244.503 313.98C244.236 313.713 244.103 313.373 244.103 312.96C244.103 312.547 244.236 312.207 244.503 311.94C244.77 311.673 245.11 311.54 245.523 311.54C245.936 311.54 246.276 311.673 246.543 311.94C246.81 312.207 246.943 312.547 246.943 312.96C246.943 313.373 246.81 313.713 246.543 313.98C246.276 314.247 245.936 314.38 245.523 314.38ZM244.563 326C244.496 326 244.436 325.98 244.383 325.94C244.343 325.887 244.323 325.827 244.323 325.76V316C244.323 315.933 244.343 315.88 244.383 315.84C244.436 315.787 244.496 315.76 244.563 315.76H246.403C246.47 315.76 246.523 315.787 246.563 315.84C246.616 315.88 246.643 315.933 246.643 316V325.76C246.643 325.827 246.616 325.887 246.563 325.94C246.523 325.98 246.47 326 246.403 326H244.563ZM253.561 326.16C252.534 326.16 251.647 325.9 250.901 325.38C250.154 324.847 249.634 324.133 249.341 323.24C249.127 322.64 249.021 321.84 249.021 320.84C249.021 319.88 249.127 319.093 249.341 318.48C249.621 317.6 250.134 316.907 250.881 316.4C251.641 315.88 252.534 315.62 253.561 315.62C254.601 315.62 255.507 315.88 256.281 316.4C257.054 316.92 257.567 317.573 257.821 318.36C257.887 318.573 257.934 318.787 257.961 319V319.04C257.961 319.173 257.887 319.253 257.741 319.28L255.941 319.54H255.901C255.781 319.54 255.701 319.473 255.661 319.34C255.661 319.273 255.654 319.22 255.641 319.18C255.614 319.073 255.587 318.98 255.561 318.9C255.441 318.527 255.201 318.22 254.841 317.98C254.481 317.74 254.054 317.62 253.561 317.62C253.054 317.62 252.621 317.753 252.261 318.02C251.914 318.273 251.681 318.627 251.561 319.08C251.427 319.507 251.361 320.1 251.361 320.86C251.361 321.593 251.421 322.187 251.541 322.64C251.674 323.107 251.914 323.48 252.261 323.76C252.607 324.027 253.041 324.16 253.561 324.16C254.067 324.16 254.501 324.033 254.861 323.78C255.234 323.513 255.474 323.16 255.581 322.72C255.594 322.693 255.601 322.66 255.601 322.62C255.614 322.607 255.621 322.587 255.621 322.56C255.661 322.4 255.754 322.333 255.901 322.36L257.701 322.64C257.767 322.653 257.821 322.687 257.861 322.74C257.914 322.78 257.934 322.84 257.921 322.92C257.881 323.133 257.847 323.287 257.821 323.38C257.567 324.233 257.054 324.913 256.281 325.42C255.507 325.913 254.601 326.16 253.561 326.16ZM260.166 326C260.099 326 260.039 325.98 259.986 325.94C259.946 325.887 259.926 325.827 259.926 325.76V312.24C259.926 312.173 259.946 312.12 259.986 312.08C260.039 312.027 260.099 312 260.166 312H262.006C262.072 312 262.126 312.027 262.166 312.08C262.219 312.12 262.246 312.173 262.246 312.24V325.76C262.246 325.827 262.219 325.887 262.166 325.94C262.126 325.98 262.072 326 262.006 326H260.166ZM273.331 319.74C273.384 320.073 273.411 320.447 273.411 320.86L273.391 321.48C273.391 321.64 273.311 321.72 273.151 321.72H266.891C266.824 321.72 266.791 321.753 266.791 321.82C266.831 322.26 266.891 322.56 266.971 322.72C267.291 323.68 268.071 324.167 269.311 324.18C270.217 324.18 270.937 323.807 271.471 323.06C271.524 322.98 271.591 322.94 271.671 322.94C271.724 322.94 271.771 322.96 271.811 323L273.051 324.02C273.171 324.113 273.191 324.22 273.111 324.34C272.697 324.927 272.144 325.38 271.451 325.7C270.771 326.02 270.011 326.18 269.171 326.18C268.131 326.18 267.244 325.947 266.511 325.48C265.791 325.013 265.264 324.36 264.931 323.52C264.624 322.8 264.471 321.8 264.471 320.52C264.471 319.747 264.551 319.12 264.711 318.64C264.977 317.707 265.477 316.973 266.211 316.44C266.957 315.893 267.851 315.62 268.891 315.62C271.517 315.62 272.997 316.993 273.331 319.74ZM268.891 317.62C268.397 317.62 267.984 317.747 267.651 318C267.331 318.24 267.104 318.58 266.971 319.02C266.891 319.247 266.837 319.54 266.811 319.9C266.784 319.967 266.811 320 266.891 320H270.951C271.017 320 271.051 319.967 271.051 319.9C271.024 319.567 270.984 319.313 270.931 319.14C270.811 318.66 270.571 318.287 270.211 318.02C269.864 317.753 269.424 317.62 268.891 317.62ZM279.175 326.12C278.335 326.12 277.595 326 276.955 325.76C276.328 325.507 275.841 325.167 275.495 324.74C275.148 324.3 274.975 323.813 274.975 323.28V323.1C274.975 323.033 274.995 322.98 275.035 322.94C275.088 322.887 275.148 322.86 275.215 322.86H276.975C277.041 322.86 277.095 322.887 277.135 322.94C277.188 322.98 277.215 323.033 277.215 323.1V323.14C277.215 323.473 277.395 323.767 277.755 324.02C278.128 324.26 278.595 324.38 279.155 324.38C279.688 324.38 280.121 324.273 280.455 324.06C280.788 323.833 280.955 323.553 280.955 323.22C280.955 322.913 280.815 322.687 280.535 322.54C280.268 322.38 279.828 322.213 279.215 322.04L278.455 321.8C277.775 321.6 277.201 321.387 276.735 321.16C276.268 320.933 275.875 320.627 275.555 320.24C275.235 319.84 275.075 319.333 275.075 318.72C275.075 317.787 275.441 317.047 276.175 316.5C276.908 315.94 277.875 315.66 279.075 315.66C279.888 315.66 280.601 315.793 281.215 316.06C281.828 316.313 282.301 316.673 282.635 317.14C282.968 317.593 283.135 318.113 283.135 318.7C283.135 318.767 283.108 318.827 283.055 318.88C283.015 318.92 282.961 318.94 282.895 318.94H281.195C281.128 318.94 281.068 318.92 281.015 318.88C280.975 318.827 280.955 318.767 280.955 318.7C280.955 318.353 280.781 318.067 280.435 317.84C280.101 317.6 279.641 317.48 279.055 317.48C278.535 317.48 278.108 317.58 277.775 317.78C277.455 317.967 277.295 318.233 277.295 318.58C277.295 318.9 277.448 319.147 277.755 319.32C278.075 319.48 278.601 319.66 279.335 319.86L279.775 319.98C280.481 320.193 281.075 320.413 281.555 320.64C282.035 320.853 282.441 321.16 282.775 321.56C283.108 321.947 283.275 322.453 283.275 323.08C283.275 324.027 282.901 324.773 282.155 325.32C281.408 325.853 280.415 326.12 279.175 326.12Z" fill="white"/>
<path d="M90.7344 116.02C90.7344 115.953 90.7544 115.9 90.7944 115.86C90.8477 115.807 90.9077 115.78 90.9744 115.78H92.8144C92.881 115.78 92.9344 115.807 92.9744 115.86C93.0277 115.9 93.0544 115.953 93.0544 116.02V125.32C93.0544 126.987 92.5744 128.173 91.6144 128.88C90.6677 129.6 89.421 129.96 87.8744 129.96C87.461 129.96 87.0544 129.94 86.6544 129.9C86.5077 129.887 86.4344 129.8 86.4344 129.64L86.4944 128C86.4944 127.853 86.5877 127.78 86.7744 127.78C87.161 127.82 87.5077 127.84 87.8144 127.84C88.8144 127.84 89.5477 127.64 90.0144 127.24C90.4944 126.853 90.7344 126.193 90.7344 125.26V125.1C90.7344 125.06 90.721 125.04 90.6944 125.04C90.6677 125.027 90.641 125.033 90.6144 125.06C90.0677 125.647 89.2944 125.94 88.2944 125.94C87.4277 125.94 86.6344 125.72 85.9144 125.28C85.1944 124.84 84.6944 124.167 84.4144 123.26C84.241 122.633 84.1544 121.827 84.1544 120.84C84.1544 119.733 84.261 118.887 84.4744 118.3C84.741 117.487 85.201 116.84 85.8544 116.36C86.5077 115.867 87.2744 115.62 88.1544 115.62C89.2077 115.62 90.0277 115.927 90.6144 116.54C90.641 116.58 90.6677 116.593 90.6944 116.58C90.721 116.567 90.7344 116.54 90.7344 116.5V116.02ZM90.5944 122.6C90.6477 122.4 90.681 122.187 90.6944 121.96C90.721 121.72 90.7344 121.34 90.7344 120.82C90.7344 120.313 90.721 119.953 90.6944 119.74C90.681 119.513 90.641 119.293 90.5744 119.08C90.4677 118.64 90.2477 118.287 89.9144 118.02C89.5944 117.753 89.181 117.62 88.6744 117.62C88.1944 117.62 87.7877 117.753 87.4544 118.02C87.121 118.287 86.881 118.64 86.7344 119.08C86.5744 119.453 86.4944 120.04 86.4944 120.84C86.4944 121.667 86.561 122.247 86.6944 122.58C86.8277 123.007 87.0677 123.36 87.4144 123.64C87.7744 123.907 88.201 124.04 88.6944 124.04C89.2144 124.04 89.6344 123.907 89.9544 123.64C90.2744 123.373 90.4877 123.027 90.5944 122.6ZM104.071 119.74C104.124 120.073 104.151 120.447 104.151 120.86L104.131 121.48C104.131 121.64 104.051 121.72 103.891 121.72H97.6309C97.5643 121.72 97.5309 121.753 97.5309 121.82C97.5709 122.26 97.6309 122.56 97.7109 122.72C98.0309 123.68 98.8109 124.167 100.051 124.18C100.958 124.18 101.678 123.807 102.211 123.06C102.264 122.98 102.331 122.94 102.411 122.94C102.464 122.94 102.511 122.96 102.551 123L103.791 124.02C103.911 124.113 103.931 124.22 103.851 124.34C103.438 124.927 102.884 125.38 102.191 125.7C101.511 126.02 100.751 126.18 99.9109 126.18C98.8709 126.18 97.9843 125.947 97.2509 125.48C96.5309 125.013 96.0043 124.36 95.6709 123.52C95.3643 122.8 95.2109 121.8 95.2109 120.52C95.2109 119.747 95.2909 119.12 95.4509 118.64C95.7176 117.707 96.2176 116.973 96.9509 116.44C97.6976 115.893 98.5909 115.62 99.6309 115.62C102.258 115.62 103.738 116.993 104.071 119.74ZM99.6309 117.62C99.1376 117.62 98.7243 117.747 98.3909 118C98.0709 118.24 97.8443 118.58 97.7109 119.02C97.6309 119.247 97.5776 119.54 97.5509 119.9C97.5243 119.967 97.5509 120 97.6309 120H101.691C101.758 120 101.791 119.967 101.791 119.9C101.764 119.567 101.724 119.313 101.671 119.14C101.551 118.66 101.311 118.287 100.951 118.02C100.604 117.753 100.164 117.62 99.6309 117.62ZM111.496 117.42C111.496 117.487 111.469 117.547 111.416 117.6C111.376 117.64 111.323 117.66 111.256 117.66H109.216C109.149 117.66 109.116 117.693 109.116 117.76V122.58C109.116 123.087 109.223 123.453 109.436 123.68C109.663 123.907 110.016 124.02 110.496 124.02H111.096C111.163 124.02 111.216 124.047 111.256 124.1C111.309 124.14 111.336 124.193 111.336 124.26V125.76C111.336 125.907 111.256 125.993 111.096 126.02L110.056 126.04C109.003 126.04 108.216 125.86 107.696 125.5C107.176 125.14 106.909 124.46 106.896 123.46V117.76C106.896 117.693 106.863 117.66 106.796 117.66H105.656C105.589 117.66 105.529 117.64 105.476 117.6C105.436 117.547 105.416 117.487 105.416 117.42V116.02C105.416 115.953 105.436 115.9 105.476 115.86C105.529 115.807 105.589 115.78 105.656 115.78H106.796C106.863 115.78 106.896 115.747 106.896 115.68V113.34C106.896 113.273 106.916 113.22 106.956 113.18C107.009 113.127 107.069 113.1 107.136 113.1H108.876C108.943 113.1 108.996 113.127 109.036 113.18C109.089 113.22 109.116 113.273 109.116 113.34V115.68C109.116 115.747 109.149 115.78 109.216 115.78H111.256C111.323 115.78 111.376 115.807 111.416 115.86C111.469 115.9 111.496 115.953 111.496 116.02V117.42ZM117.356 126.12C116.516 126.12 115.776 126 115.136 125.76C114.51 125.507 114.023 125.167 113.676 124.74C113.33 124.3 113.156 123.813 113.156 123.28V123.1C113.156 123.033 113.176 122.98 113.216 122.94C113.27 122.887 113.33 122.86 113.396 122.86H115.156C115.223 122.86 115.276 122.887 115.316 122.94C115.37 122.98 115.396 123.033 115.396 123.1V123.14C115.396 123.473 115.576 123.767 115.936 124.02C116.31 124.26 116.776 124.38 117.336 124.38C117.87 124.38 118.303 124.273 118.636 124.06C118.97 123.833 119.136 123.553 119.136 123.22C119.136 122.913 118.996 122.687 118.716 122.54C118.45 122.38 118.01 122.213 117.396 122.04L116.636 121.8C115.956 121.6 115.383 121.387 114.916 121.16C114.45 120.933 114.056 120.627 113.736 120.24C113.416 119.84 113.256 119.333 113.256 118.72C113.256 117.787 113.623 117.047 114.356 116.5C115.09 115.94 116.056 115.66 117.256 115.66C118.07 115.66 118.783 115.793 119.396 116.06C120.01 116.313 120.483 116.673 120.816 117.14C121.15 117.593 121.316 118.113 121.316 118.7C121.316 118.767 121.29 118.827 121.236 118.88C121.196 118.92 121.143 118.94 121.076 118.94H119.376C119.31 118.94 119.25 118.92 119.196 118.88C119.156 118.827 119.136 118.767 119.136 118.7C119.136 118.353 118.963 118.067 118.616 117.84C118.283 117.6 117.823 117.48 117.236 117.48C116.716 117.48 116.29 117.58 115.956 117.78C115.636 117.967 115.476 118.233 115.476 118.58C115.476 118.9 115.63 119.147 115.936 119.32C116.256 119.48 116.783 119.66 117.516 119.86L117.956 119.98C118.663 120.193 119.256 120.413 119.736 120.64C120.216 120.853 120.623 121.16 120.956 121.56C121.29 121.947 121.456 122.453 121.456 123.08C121.456 124.027 121.083 124.773 120.336 125.32C119.59 125.853 118.596 126.12 117.356 126.12ZM131.684 126.16C130.657 126.16 129.77 125.9 129.024 125.38C128.277 124.847 127.757 124.133 127.464 123.24C127.25 122.64 127.144 121.84 127.144 120.84C127.144 119.88 127.25 119.093 127.464 118.48C127.744 117.6 128.257 116.907 129.004 116.4C129.764 115.88 130.657 115.62 131.684 115.62C132.724 115.62 133.63 115.88 134.404 116.4C135.177 116.92 135.69 117.573 135.944 118.36C136.01 118.573 136.057 118.787 136.084 119V119.04C136.084 119.173 136.01 119.253 135.864 119.28L134.064 119.54H134.024C133.904 119.54 133.824 119.473 133.784 119.34C133.784 119.273 133.777 119.22 133.764 119.18C133.737 119.073 133.71 118.98 133.684 118.9C133.564 118.527 133.324 118.22 132.964 117.98C132.604 117.74 132.177 117.62 131.684 117.62C131.177 117.62 130.744 117.753 130.384 118.02C130.037 118.273 129.804 118.627 129.684 119.08C129.55 119.507 129.484 120.1 129.484 120.86C129.484 121.593 129.544 122.187 129.664 122.64C129.797 123.107 130.037 123.48 130.384 123.76C130.73 124.027 131.164 124.16 131.684 124.16C132.19 124.16 132.624 124.033 132.984 123.78C133.357 123.513 133.597 123.16 133.704 122.72C133.717 122.693 133.724 122.66 133.724 122.62C133.737 122.607 133.744 122.587 133.744 122.56C133.784 122.4 133.877 122.333 134.024 122.36L135.824 122.64C135.89 122.653 135.944 122.687 135.984 122.74C136.037 122.78 136.057 122.84 136.044 122.92C136.004 123.133 135.97 123.287 135.944 123.38C135.69 124.233 135.177 124.913 134.404 125.42C133.63 125.913 132.724 126.16 131.684 126.16ZM138.289 126C138.222 126 138.162 125.98 138.109 125.94C138.069 125.887 138.049 125.827 138.049 125.76V112.24C138.049 112.173 138.069 112.12 138.109 112.08C138.162 112.027 138.222 112 138.289 112H140.129C140.195 112 140.249 112.027 140.289 112.08C140.342 112.12 140.369 112.173 140.369 112.24V125.76C140.369 125.827 140.342 125.887 140.289 125.94C140.249 125.98 140.195 126 140.129 126H138.289ZM146.734 115.62C147.574 115.62 148.314 115.767 148.954 116.06C149.594 116.353 150.087 116.76 150.434 117.28C150.78 117.787 150.954 118.367 150.954 119.02V125.76C150.954 125.827 150.927 125.887 150.874 125.94C150.834 125.98 150.78 126 150.714 126H148.874C148.807 126 148.747 125.98 148.694 125.94C148.654 125.887 148.634 125.827 148.634 125.76V125.12C148.634 125.08 148.62 125.06 148.594 125.06C148.567 125.047 148.54 125.053 148.514 125.08C147.86 125.8 146.914 126.16 145.674 126.16C144.674 126.16 143.847 125.907 143.194 125.4C142.554 124.893 142.234 124.14 142.234 123.14C142.234 122.1 142.594 121.293 143.314 120.72C144.047 120.133 145.074 119.84 146.394 119.84H148.534C148.6 119.84 148.634 119.807 148.634 119.74V119.26C148.634 118.74 148.48 118.34 148.174 118.06C147.867 117.767 147.407 117.62 146.794 117.62C146.287 117.62 145.874 117.713 145.554 117.9C145.247 118.073 145.054 118.32 144.974 118.64C144.934 118.8 144.84 118.867 144.694 118.84L142.754 118.6C142.687 118.587 142.627 118.567 142.574 118.54C142.534 118.5 142.52 118.453 142.534 118.4C142.64 117.587 143.074 116.92 143.834 116.4C144.607 115.88 145.574 115.62 146.734 115.62ZM146.254 124.32C146.907 124.32 147.467 124.147 147.934 123.8C148.4 123.453 148.634 123.013 148.634 122.48V121.54C148.634 121.473 148.6 121.44 148.534 121.44H146.854C146.147 121.44 145.587 121.573 145.174 121.84C144.774 122.107 144.574 122.487 144.574 122.98C144.574 123.407 144.727 123.74 145.034 123.98C145.354 124.207 145.76 124.32 146.254 124.32ZM158.043 115.66C158.47 115.66 158.843 115.747 159.163 115.92C159.27 115.973 159.31 116.073 159.283 116.22L158.943 118.02C158.93 118.18 158.836 118.227 158.663 118.16C158.463 118.093 158.23 118.06 157.963 118.06C157.79 118.06 157.656 118.067 157.563 118.08C157.003 118.107 156.536 118.307 156.163 118.68C155.79 119.04 155.603 119.513 155.603 120.1V125.76C155.603 125.827 155.576 125.887 155.523 125.94C155.483 125.98 155.43 126 155.363 126H153.523C153.456 126 153.396 125.98 153.343 125.94C153.303 125.887 153.283 125.827 153.283 125.76V116.02C153.283 115.953 153.303 115.9 153.343 115.86C153.396 115.807 153.456 115.78 153.523 115.78H155.363C155.43 115.78 155.483 115.807 155.523 115.86C155.576 115.9 155.603 115.953 155.603 116.02V116.92C155.603 116.973 155.61 117.007 155.623 117.02C155.65 117.02 155.676 117 155.703 116.96C156.263 116.093 157.043 115.66 158.043 115.66ZM162.123 114.38C161.709 114.38 161.369 114.247 161.103 113.98C160.836 113.713 160.703 113.373 160.703 112.96C160.703 112.547 160.836 112.207 161.103 111.94C161.369 111.673 161.709 111.54 162.123 111.54C162.536 111.54 162.876 111.673 163.143 111.94C163.409 112.207 163.543 112.547 163.543 112.96C163.543 113.373 163.409 113.713 163.143 113.98C162.876 114.247 162.536 114.38 162.123 114.38ZM161.163 126C161.096 126 161.036 125.98 160.983 125.94C160.943 125.887 160.923 125.827 160.923 125.76V116C160.923 115.933 160.943 115.88 160.983 115.84C161.036 115.787 161.096 115.76 161.163 115.76H163.003C163.069 115.76 163.123 115.787 163.163 115.84C163.216 115.88 163.243 115.933 163.243 116V125.76C163.243 125.827 163.216 125.887 163.163 125.94C163.123 125.98 163.069 126 163.003 126H161.163ZM171.22 115.76C171.287 115.76 171.34 115.787 171.38 115.84C171.433 115.88 171.46 115.933 171.46 116V117.58C171.46 117.647 171.433 117.707 171.38 117.76C171.34 117.8 171.287 117.82 171.22 117.82H169.24C169.173 117.82 169.14 117.853 169.14 117.92V125.76C169.14 125.827 169.113 125.887 169.06 125.94C169.02 125.98 168.967 126 168.9 126H167.06C166.993 126 166.933 125.98 166.88 125.94C166.84 125.887 166.82 125.827 166.82 125.76V117.92C166.82 117.853 166.787 117.82 166.72 117.82H165.48C165.413 117.82 165.353 117.8 165.3 117.76C165.26 117.707 165.24 117.647 165.24 117.58V116C165.24 115.933 165.26 115.88 165.3 115.84C165.353 115.787 165.413 115.76 165.48 115.76H166.72C166.787 115.76 166.82 115.727 166.82 115.66V115.3C166.82 114.433 166.933 113.767 167.16 113.3C167.387 112.82 167.76 112.48 168.28 112.28C168.8 112.08 169.533 111.987 170.48 112H171.18C171.247 112 171.3 112.027 171.34 112.08C171.393 112.12 171.42 112.173 171.42 112.24V113.64C171.42 113.707 171.393 113.767 171.34 113.82C171.3 113.86 171.247 113.88 171.18 113.88H170.66C170.087 113.88 169.687 113.993 169.46 114.22C169.247 114.447 169.14 114.86 169.14 115.46V115.66C169.14 115.727 169.173 115.76 169.24 115.76H171.22ZM174.74 114.38C174.327 114.38 173.987 114.247 173.72 113.98C173.453 113.713 173.32 113.373 173.32 112.96C173.32 112.547 173.453 112.207 173.72 111.94C173.987 111.673 174.327 111.54 174.74 111.54C175.153 111.54 175.493 111.673 175.76 111.94C176.027 112.207 176.16 112.547 176.16 112.96C176.16 113.373 176.027 113.713 175.76 113.98C175.493 114.247 175.153 114.38 174.74 114.38ZM173.78 126C173.713 126 173.653 125.98 173.6 125.94C173.56 125.887 173.54 125.827 173.54 125.76V116C173.54 115.933 173.56 115.88 173.6 115.84C173.653 115.787 173.713 115.76 173.78 115.76H175.62C175.687 115.76 175.74 115.787 175.78 115.84C175.833 115.88 175.86 115.933 175.86 116V125.76C175.86 125.827 175.833 125.887 175.78 125.94C175.74 125.98 175.687 126 175.62 126H173.78ZM182.777 126.16C181.751 126.16 180.864 125.9 180.117 125.38C179.371 124.847 178.851 124.133 178.557 123.24C178.344 122.64 178.237 121.84 178.237 120.84C178.237 119.88 178.344 119.093 178.557 118.48C178.837 117.6 179.351 116.907 180.097 116.4C180.857 115.88 181.751 115.62 182.777 115.62C183.817 115.62 184.724 115.88 185.497 116.4C186.271 116.92 186.784 117.573 187.037 118.36C187.104 118.573 187.151 118.787 187.177 119V119.04C187.177 119.173 187.104 119.253 186.957 119.28L185.157 119.54H185.117C184.997 119.54 184.917 119.473 184.877 119.34C184.877 119.273 184.871 119.22 184.857 119.18C184.831 119.073 184.804 118.98 184.777 118.9C184.657 118.527 184.417 118.22 184.057 117.98C183.697 117.74 183.271 117.62 182.777 117.62C182.271 117.62 181.837 117.753 181.477 118.02C181.131 118.273 180.897 118.627 180.777 119.08C180.644 119.507 180.577 120.1 180.577 120.86C180.577 121.593 180.637 122.187 180.757 122.64C180.891 123.107 181.131 123.48 181.477 123.76C181.824 124.027 182.257 124.16 182.777 124.16C183.284 124.16 183.717 124.033 184.077 123.78C184.451 123.513 184.691 123.16 184.797 122.72C184.811 122.693 184.817 122.66 184.817 122.62C184.831 122.607 184.837 122.587 184.837 122.56C184.877 122.4 184.971 122.333 185.117 122.36L186.917 122.64C186.984 122.653 187.037 122.687 187.077 122.74C187.131 122.78 187.151 122.84 187.137 122.92C187.097 123.133 187.064 123.287 187.037 123.38C186.784 124.233 186.271 124.913 185.497 125.42C184.724 125.913 183.817 126.16 182.777 126.16ZM193.042 115.62C193.882 115.62 194.622 115.767 195.262 116.06C195.902 116.353 196.396 116.76 196.742 117.28C197.089 117.787 197.262 118.367 197.262 119.02V125.76C197.262 125.827 197.236 125.887 197.182 125.94C197.142 125.98 197.089 126 197.022 126H195.182C195.116 126 195.056 125.98 195.002 125.94C194.962 125.887 194.942 125.827 194.942 125.76V125.12C194.942 125.08 194.929 125.06 194.902 125.06C194.876 125.047 194.849 125.053 194.822 125.08C194.169 125.8 193.222 126.16 191.982 126.16C190.982 126.16 190.156 125.907 189.502 125.4C188.862 124.893 188.542 124.14 188.542 123.14C188.542 122.1 188.902 121.293 189.622 120.72C190.356 120.133 191.382 119.84 192.702 119.84H194.842C194.909 119.84 194.942 119.807 194.942 119.74V119.26C194.942 118.74 194.789 118.34 194.482 118.06C194.176 117.767 193.716 117.62 193.102 117.62C192.596 117.62 192.182 117.713 191.862 117.9C191.556 118.073 191.362 118.32 191.282 118.64C191.242 118.8 191.149 118.867 191.002 118.84L189.062 118.6C188.996 118.587 188.936 118.567 188.882 118.54C188.842 118.5 188.829 118.453 188.842 118.4C188.949 117.587 189.382 116.92 190.142 116.4C190.916 115.88 191.882 115.62 193.042 115.62ZM192.562 124.32C193.216 124.32 193.776 124.147 194.242 123.8C194.709 123.453 194.942 123.013 194.942 122.48V121.54C194.942 121.473 194.909 121.44 194.842 121.44H193.162C192.456 121.44 191.896 121.573 191.482 121.84C191.082 122.107 190.882 122.487 190.882 122.98C190.882 123.407 191.036 123.74 191.342 123.98C191.662 124.207 192.069 124.32 192.562 124.32ZM204.855 117.42C204.855 117.487 204.829 117.547 204.775 117.6C204.735 117.64 204.682 117.66 204.615 117.66H202.575C202.509 117.66 202.475 117.693 202.475 117.76V122.58C202.475 123.087 202.582 123.453 202.795 123.68C203.022 123.907 203.375 124.02 203.855 124.02H204.455C204.522 124.02 204.575 124.047 204.615 124.1C204.669 124.14 204.695 124.193 204.695 124.26V125.76C204.695 125.907 204.615 125.993 204.455 126.02L203.415 126.04C202.362 126.04 201.575 125.86 201.055 125.5C200.535 125.14 200.269 124.46 200.255 123.46V117.76C200.255 117.693 200.222 117.66 200.155 117.66H199.015C198.949 117.66 198.889 117.64 198.835 117.6C198.795 117.547 198.775 117.487 198.775 117.42V116.02C198.775 115.953 198.795 115.9 198.835 115.86C198.889 115.807 198.949 115.78 199.015 115.78H200.155C200.222 115.78 200.255 115.747 200.255 115.68V113.34C200.255 113.273 200.275 113.22 200.315 113.18C200.369 113.127 200.429 113.1 200.495 113.1H202.235C202.302 113.1 202.355 113.127 202.395 113.18C202.449 113.22 202.475 113.273 202.475 113.34V115.68C202.475 115.747 202.509 115.78 202.575 115.78H204.615C204.682 115.78 204.735 115.807 204.775 115.86C204.829 115.9 204.855 115.953 204.855 116.02V117.42ZM208.236 114.38C207.822 114.38 207.482 114.247 207.216 113.98C206.949 113.713 206.816 113.373 206.816 112.96C206.816 112.547 206.949 112.207 207.216 111.94C207.482 111.673 207.822 111.54 208.236 111.54C208.649 111.54 208.989 111.673 209.256 111.94C209.522 112.207 209.656 112.547 209.656 112.96C209.656 113.373 209.522 113.713 209.256 113.98C208.989 114.247 208.649 114.38 208.236 114.38ZM207.276 126C207.209 126 207.149 125.98 207.096 125.94C207.056 125.887 207.036 125.827 207.036 125.76V116C207.036 115.933 207.056 115.88 207.096 115.84C207.149 115.787 207.209 115.76 207.276 115.76H209.116C209.182 115.76 209.236 115.787 209.276 115.84C209.329 115.88 209.356 115.933 209.356 116V125.76C209.356 125.827 209.329 125.887 209.276 125.94C209.236 125.98 209.182 126 209.116 126H207.276ZM216.353 126.16C215.3 126.16 214.393 125.893 213.633 125.36C212.887 124.827 212.36 124.087 212.053 123.14C211.827 122.42 211.713 121.66 211.713 120.86C211.713 120.007 211.82 119.247 212.033 118.58C212.34 117.647 212.873 116.92 213.633 116.4C214.393 115.88 215.307 115.62 216.373 115.62C217.387 115.62 218.26 115.88 218.993 116.4C219.74 116.92 220.267 117.64 220.573 118.56C220.813 119.2 220.933 119.96 220.933 120.84C220.933 121.68 220.82 122.44 220.593 123.12C220.287 124.067 219.76 124.813 219.013 125.36C218.267 125.893 217.38 126.16 216.353 126.16ZM216.353 124.16C216.847 124.16 217.267 124.02 217.613 123.74C217.973 123.46 218.233 123.067 218.393 122.56C218.527 122.12 218.593 121.56 218.593 120.88C218.593 120.16 218.527 119.6 218.393 119.2C218.247 118.693 217.993 118.307 217.633 118.04C217.273 117.76 216.833 117.62 216.313 117.62C215.82 117.62 215.393 117.76 215.033 118.04C214.673 118.307 214.413 118.693 214.253 119.2C214.12 119.667 214.053 120.227 214.053 120.88C214.053 121.533 214.12 122.093 214.253 122.56C214.4 123.067 214.653 123.46 215.013 123.74C215.387 124.02 215.833 124.16 216.353 124.16ZM228.027 115.62C229.107 115.62 229.967 115.94 230.607 116.58C231.26 117.22 231.587 118.093 231.587 119.2V125.76C231.587 125.827 231.56 125.887 231.507 125.94C231.467 125.98 231.413 126 231.347 126H229.507C229.44 126 229.38 125.98 229.327 125.94C229.287 125.887 229.267 125.827 229.267 125.76V119.68C229.267 119.067 229.093 118.573 228.747 118.2C228.4 117.813 227.94 117.62 227.367 117.62C226.793 117.62 226.327 117.807 225.967 118.18C225.62 118.553 225.447 119.047 225.447 119.66V125.76C225.447 125.827 225.42 125.887 225.367 125.94C225.327 125.98 225.273 126 225.207 126H223.367C223.3 126 223.24 125.98 223.187 125.94C223.147 125.887 223.127 125.827 223.127 125.76V116.02C223.127 115.953 223.147 115.9 223.187 115.86C223.24 115.807 223.3 115.78 223.367 115.78H225.207C225.273 115.78 225.327 115.807 225.367 115.86C225.42 115.9 225.447 115.953 225.447 116.02V116.66C225.447 116.7 225.46 116.727 225.487 116.74C225.513 116.753 225.533 116.74 225.547 116.7C226.093 115.98 226.92 115.62 228.027 115.62ZM129.924 141.42C129.924 141.487 129.897 141.547 129.844 141.6C129.804 141.64 129.75 141.66 129.684 141.66H127.644C127.577 141.66 127.544 141.693 127.544 141.76V146.58C127.544 147.087 127.65 147.453 127.864 147.68C128.09 147.907 128.444 148.02 128.924 148.02H129.524C129.59 148.02 129.644 148.047 129.684 148.1C129.737 148.14 129.764 148.193 129.764 148.26V149.76C129.764 149.907 129.684 149.993 129.524 150.02L128.484 150.04C127.43 150.04 126.644 149.86 126.124 149.5C125.604 149.14 125.337 148.46 125.324 147.46V141.76C125.324 141.693 125.29 141.66 125.224 141.66H124.084C124.017 141.66 123.957 141.64 123.904 141.6C123.864 141.547 123.844 141.487 123.844 141.42V140.02C123.844 139.953 123.864 139.9 123.904 139.86C123.957 139.807 124.017 139.78 124.084 139.78H125.224C125.29 139.78 125.324 139.747 125.324 139.68V137.34C125.324 137.273 125.344 137.22 125.384 137.18C125.437 137.127 125.497 137.1 125.564 137.1H127.304C127.37 137.1 127.424 137.127 127.464 137.18C127.517 137.22 127.544 137.273 127.544 137.34V139.68C127.544 139.747 127.577 139.78 127.644 139.78H129.684C129.75 139.78 129.804 139.807 129.844 139.86C129.897 139.9 129.924 139.953 129.924 140.02V141.42ZM136.884 139.62C137.964 139.62 138.824 139.94 139.464 140.58C140.117 141.22 140.444 142.093 140.444 143.2V149.76C140.444 149.827 140.417 149.887 140.364 149.94C140.324 149.98 140.271 150 140.204 150H138.364C138.297 150 138.237 149.98 138.184 149.94C138.144 149.887 138.124 149.827 138.124 149.76V143.68C138.124 143.067 137.951 142.573 137.604 142.2C137.257 141.813 136.797 141.62 136.224 141.62C135.651 141.62 135.184 141.807 134.824 142.18C134.477 142.553 134.304 143.047 134.304 143.66V149.76C134.304 149.827 134.277 149.887 134.224 149.94C134.184 149.98 134.131 150 134.064 150H132.224C132.157 150 132.097 149.98 132.044 149.94C132.004 149.887 131.984 149.827 131.984 149.76V136.24C131.984 136.173 132.004 136.12 132.044 136.08C132.097 136.027 132.157 136 132.224 136H134.064C134.131 136 134.184 136.027 134.224 136.08C134.277 136.12 134.304 136.173 134.304 136.24V140.66C134.304 140.7 134.317 140.727 134.344 140.74C134.371 140.753 134.391 140.74 134.404 140.7C134.951 139.98 135.777 139.62 136.884 139.62ZM147.623 139.66C148.05 139.66 148.423 139.747 148.743 139.92C148.85 139.973 148.89 140.073 148.863 140.22L148.523 142.02C148.51 142.18 148.416 142.227 148.243 142.16C148.043 142.093 147.81 142.06 147.543 142.06C147.37 142.06 147.236 142.067 147.143 142.08C146.583 142.107 146.116 142.307 145.743 142.68C145.37 143.04 145.183 143.513 145.183 144.1V149.76C145.183 149.827 145.156 149.887 145.103 149.94C145.063 149.98 145.01 150 144.943 150H143.103C143.036 150 142.976 149.98 142.923 149.94C142.883 149.887 142.863 149.827 142.863 149.76V140.02C142.863 139.953 142.883 139.9 142.923 139.86C142.976 139.807 143.036 139.78 143.103 139.78H144.943C145.01 139.78 145.063 139.807 145.103 139.86C145.156 139.9 145.183 139.953 145.183 140.02V140.92C145.183 140.973 145.19 141.007 145.203 141.02C145.23 141.02 145.256 141 145.283 140.96C145.843 140.093 146.623 139.66 147.623 139.66ZM154.527 150.16C153.474 150.16 152.567 149.893 151.807 149.36C151.061 148.827 150.534 148.087 150.227 147.14C150.001 146.42 149.887 145.66 149.887 144.86C149.887 144.007 149.994 143.247 150.207 142.58C150.514 141.647 151.047 140.92 151.807 140.4C152.567 139.88 153.481 139.62 154.547 139.62C155.561 139.62 156.434 139.88 157.167 140.4C157.914 140.92 158.441 141.64 158.747 142.56C158.987 143.2 159.107 143.96 159.107 144.84C159.107 145.68 158.994 146.44 158.767 147.12C158.461 148.067 157.934 148.813 157.187 149.36C156.441 149.893 155.554 150.16 154.527 150.16ZM154.527 148.16C155.021 148.16 155.441 148.02 155.787 147.74C156.147 147.46 156.407 147.067 156.567 146.56C156.701 146.12 156.767 145.56 156.767 144.88C156.767 144.16 156.701 143.6 156.567 143.2C156.421 142.693 156.167 142.307 155.807 142.04C155.447 141.76 155.007 141.62 154.487 141.62C153.994 141.62 153.567 141.76 153.207 142.04C152.847 142.307 152.587 142.693 152.427 143.2C152.294 143.667 152.227 144.227 152.227 144.88C152.227 145.533 152.294 146.093 152.427 146.56C152.574 147.067 152.827 147.46 153.187 147.74C153.561 148.02 154.007 148.16 154.527 148.16ZM167.341 140.02C167.341 139.953 167.361 139.9 167.401 139.86C167.454 139.807 167.514 139.78 167.581 139.78H169.401C169.467 139.78 169.521 139.807 169.561 139.86C169.614 139.9 169.641 139.953 169.641 140.02V149.76C169.641 149.827 169.614 149.887 169.561 149.94C169.521 149.98 169.467 150 169.401 150H167.581C167.514 150 167.454 149.98 167.401 149.94C167.361 149.887 167.341 149.827 167.341 149.76V149.12C167.341 149.08 167.327 149.053 167.301 149.04C167.274 149.027 167.247 149.04 167.221 149.08C166.674 149.787 165.854 150.14 164.761 150.14C163.747 150.14 162.894 149.847 162.201 149.26C161.521 148.673 161.181 147.84 161.181 146.76V140.02C161.181 139.953 161.201 139.9 161.241 139.86C161.294 139.807 161.354 139.78 161.421 139.78H163.261C163.327 139.78 163.381 139.807 163.421 139.86C163.474 139.9 163.501 139.953 163.501 140.02V146.1C163.501 146.727 163.661 147.227 163.981 147.6C164.314 147.973 164.774 148.16 165.361 148.16C165.961 148.16 166.441 147.973 166.801 147.6C167.161 147.227 167.341 146.727 167.341 146.1V140.02ZM178.381 140.02C178.381 139.953 178.401 139.9 178.441 139.86C178.494 139.807 178.554 139.78 178.621 139.78H180.461C180.528 139.78 180.581 139.807 180.621 139.86C180.674 139.9 180.701 139.953 180.701 140.02V149.32C180.701 150.987 180.221 152.173 179.261 152.88C178.314 153.6 177.068 153.96 175.521 153.96C175.108 153.96 174.701 153.94 174.301 153.9C174.154 153.887 174.081 153.8 174.081 153.64L174.141 152C174.141 151.853 174.234 151.78 174.421 151.78C174.808 151.82 175.154 151.84 175.461 151.84C176.461 151.84 177.194 151.64 177.661 151.24C178.141 150.853 178.381 150.193 178.381 149.26V149.1C178.381 149.06 178.368 149.04 178.341 149.04C178.314 149.027 178.288 149.033 178.261 149.06C177.714 149.647 176.941 149.94 175.941 149.94C175.074 149.94 174.281 149.72 173.561 149.28C172.841 148.84 172.341 148.167 172.061 147.26C171.888 146.633 171.801 145.827 171.801 144.84C171.801 143.733 171.908 142.887 172.121 142.3C172.388 141.487 172.848 140.84 173.501 140.36C174.154 139.867 174.921 139.62 175.801 139.62C176.854 139.62 177.674 139.927 178.261 140.54C178.288 140.58 178.314 140.593 178.341 140.58C178.368 140.567 178.381 140.54 178.381 140.5V140.02ZM178.241 146.6C178.294 146.4 178.328 146.187 178.341 145.96C178.368 145.72 178.381 145.34 178.381 144.82C178.381 144.313 178.368 143.953 178.341 143.74C178.328 143.513 178.288 143.293 178.221 143.08C178.114 142.64 177.894 142.287 177.561 142.02C177.241 141.753 176.828 141.62 176.321 141.62C175.841 141.62 175.434 141.753 175.101 142.02C174.768 142.287 174.528 142.64 174.381 143.08C174.221 143.453 174.141 144.04 174.141 144.84C174.141 145.667 174.208 146.247 174.341 146.58C174.474 147.007 174.714 147.36 175.061 147.64C175.421 147.907 175.848 148.04 176.341 148.04C176.861 148.04 177.281 147.907 177.601 147.64C177.921 147.373 178.134 147.027 178.241 146.6ZM187.997 139.62C189.077 139.62 189.937 139.94 190.577 140.58C191.231 141.22 191.557 142.093 191.557 143.2V149.76C191.557 149.827 191.531 149.887 191.477 149.94C191.437 149.98 191.384 150 191.317 150H189.477C189.411 150 189.351 149.98 189.297 149.94C189.257 149.887 189.237 149.827 189.237 149.76V143.68C189.237 143.067 189.064 142.573 188.717 142.2C188.371 141.813 187.911 141.62 187.337 141.62C186.764 141.62 186.297 141.807 185.937 142.18C185.591 142.553 185.417 143.047 185.417 143.66V149.76C185.417 149.827 185.391 149.887 185.337 149.94C185.297 149.98 185.244 150 185.177 150H183.337C183.271 150 183.211 149.98 183.157 149.94C183.117 149.887 183.097 149.827 183.097 149.76V136.24C183.097 136.173 183.117 136.12 183.157 136.08C183.211 136.027 183.271 136 183.337 136H185.177C185.244 136 185.297 136.027 185.337 136.08C185.391 136.12 185.417 136.173 185.417 136.24V140.66C185.417 140.7 185.431 140.727 185.457 140.74C185.484 140.753 185.504 140.74 185.517 140.7C186.064 139.98 186.891 139.62 187.997 139.62Z" fill="#555555"/>
<path d="M159.5 158C159.5 157.172 158.828 156.5 158 156.5C157.172 156.5 156.5 157.172 156.5 158H159.5ZM156.5 158V189H159.5V158H156.5ZM134 211.5H100V214.5H134V211.5ZM100 211.5C91.4396 211.5 84.5 218.44 84.5 227H87.5C87.5 220.096 93.0964 214.5 100 214.5V211.5ZM156.5 189C156.5 201.426 146.426 211.5 134 211.5V214.5C148.083 214.5 159.5 203.083 159.5 189H156.5Z" fill="#555555"/>
<path d="M159.5 158C159.5 157.172 158.828 156.5 158 156.5C157.172 156.5 156.5 157.172 156.5 158H159.5ZM156.5 158V173H159.5V158H156.5ZM182 198.5H188V195.5H182V198.5ZM210.5 221V293H213.5V221H210.5ZM188 198.5C200.426 198.5 210.5 208.574 210.5 221H213.5C213.5 206.917 202.083 195.5 188 195.5V198.5ZM156.5 173C156.5 187.083 167.917 198.5 182 198.5V195.5C169.574 195.5 159.5 185.426 159.5 173H156.5Z" fill="#555555"/>
<path d="M159.5 76C159.5 75.1716 158.828 74.5 158 74.5C157.172 74.5 156.5 75.1716 156.5 76H159.5ZM156.5 76V102H159.5V76H156.5Z" fill="#555555"/>
</svg>
